%TF.GenerationSoftware,KiCad,Pcbnew,7.0.9*%
%TF.CreationDate,2023-11-18T21:52:13-06:00*%
%TF.ProjectId,batttlebot_pcb,62617474-746c-4656-926f-745f7063622e,rev?*%
%TF.SameCoordinates,Original*%
%TF.FileFunction,Legend,Top*%
%TF.FilePolarity,Positive*%
%FSLAX46Y46*%
G04 Gerber Fmt 4.6, Leading zero omitted, Abs format (unit mm)*
G04 Created by KiCad (PCBNEW 7.0.9) date 2023-11-18 21:52:13*
%MOMM*%
%LPD*%
G01*
G04 APERTURE LIST*
%ADD10C,0.150000*%
%ADD11C,0.120000*%
G04 APERTURE END LIST*
D10*
X110191779Y-104121009D02*
X110525112Y-104121009D01*
X110667969Y-104644819D02*
X110191779Y-104644819D01*
X110191779Y-104644819D02*
X110191779Y-103644819D01*
X110191779Y-103644819D02*
X110667969Y-103644819D01*
X111096541Y-104644819D02*
X111096541Y-103644819D01*
X111096541Y-103644819D02*
X111667969Y-104644819D01*
X111667969Y-104644819D02*
X111667969Y-103644819D01*
X112477493Y-104121009D02*
X112620350Y-104168628D01*
X112620350Y-104168628D02*
X112667969Y-104216247D01*
X112667969Y-104216247D02*
X112715588Y-104311485D01*
X112715588Y-104311485D02*
X112715588Y-104454342D01*
X112715588Y-104454342D02*
X112667969Y-104549580D01*
X112667969Y-104549580D02*
X112620350Y-104597200D01*
X112620350Y-104597200D02*
X112525112Y-104644819D01*
X112525112Y-104644819D02*
X112144160Y-104644819D01*
X112144160Y-104644819D02*
X112144160Y-103644819D01*
X112144160Y-103644819D02*
X112477493Y-103644819D01*
X112477493Y-103644819D02*
X112572731Y-103692438D01*
X112572731Y-103692438D02*
X112620350Y-103740057D01*
X112620350Y-103740057D02*
X112667969Y-103835295D01*
X112667969Y-103835295D02*
X112667969Y-103930533D01*
X112667969Y-103930533D02*
X112620350Y-104025771D01*
X112620350Y-104025771D02*
X112572731Y-104073390D01*
X112572731Y-104073390D02*
X112477493Y-104121009D01*
X112477493Y-104121009D02*
X112144160Y-104121009D01*
X110191779Y-107184819D02*
X110191779Y-106184819D01*
X110667969Y-107184819D02*
X110667969Y-106184819D01*
X110667969Y-106184819D02*
X111239397Y-107184819D01*
X111239397Y-107184819D02*
X111239397Y-106184819D01*
X112144159Y-106518152D02*
X112144159Y-107184819D01*
X111906064Y-106137200D02*
X111667969Y-106851485D01*
X111667969Y-106851485D02*
X112287016Y-106851485D01*
X110191779Y-109724819D02*
X110191779Y-108724819D01*
X110667969Y-109724819D02*
X110667969Y-108724819D01*
X110667969Y-108724819D02*
X111239397Y-109724819D01*
X111239397Y-109724819D02*
X111239397Y-108724819D01*
X111620350Y-108724819D02*
X112239397Y-108724819D01*
X112239397Y-108724819D02*
X111906064Y-109105771D01*
X111906064Y-109105771D02*
X112048921Y-109105771D01*
X112048921Y-109105771D02*
X112144159Y-109153390D01*
X112144159Y-109153390D02*
X112191778Y-109201009D01*
X112191778Y-109201009D02*
X112239397Y-109296247D01*
X112239397Y-109296247D02*
X112239397Y-109534342D01*
X112239397Y-109534342D02*
X112191778Y-109629580D01*
X112191778Y-109629580D02*
X112144159Y-109677200D01*
X112144159Y-109677200D02*
X112048921Y-109724819D01*
X112048921Y-109724819D02*
X111763207Y-109724819D01*
X111763207Y-109724819D02*
X111667969Y-109677200D01*
X111667969Y-109677200D02*
X111620350Y-109629580D01*
X110191779Y-112264819D02*
X110191779Y-111264819D01*
X110667969Y-112264819D02*
X110667969Y-111264819D01*
X110667969Y-111264819D02*
X111239397Y-112264819D01*
X111239397Y-112264819D02*
X111239397Y-111264819D01*
X111667969Y-111360057D02*
X111715588Y-111312438D01*
X111715588Y-111312438D02*
X111810826Y-111264819D01*
X111810826Y-111264819D02*
X112048921Y-111264819D01*
X112048921Y-111264819D02*
X112144159Y-111312438D01*
X112144159Y-111312438D02*
X112191778Y-111360057D01*
X112191778Y-111360057D02*
X112239397Y-111455295D01*
X112239397Y-111455295D02*
X112239397Y-111550533D01*
X112239397Y-111550533D02*
X112191778Y-111693390D01*
X112191778Y-111693390D02*
X111620350Y-112264819D01*
X111620350Y-112264819D02*
X112239397Y-112264819D01*
X110191779Y-114804819D02*
X110191779Y-113804819D01*
X110667969Y-114804819D02*
X110667969Y-113804819D01*
X110667969Y-113804819D02*
X111239397Y-114804819D01*
X111239397Y-114804819D02*
X111239397Y-113804819D01*
X112239397Y-114804819D02*
X111667969Y-114804819D01*
X111953683Y-114804819D02*
X111953683Y-113804819D01*
X111953683Y-113804819D02*
X111858445Y-113947676D01*
X111858445Y-113947676D02*
X111763207Y-114042914D01*
X111763207Y-114042914D02*
X111667969Y-114090533D01*
X110191779Y-116821009D02*
X110525112Y-116821009D01*
X110667969Y-117344819D02*
X110191779Y-117344819D01*
X110191779Y-117344819D02*
X110191779Y-116344819D01*
X110191779Y-116344819D02*
X110667969Y-116344819D01*
X111096541Y-117344819D02*
X111096541Y-116344819D01*
X111096541Y-116344819D02*
X111667969Y-117344819D01*
X111667969Y-117344819D02*
X111667969Y-116344819D01*
X112096541Y-117059104D02*
X112572731Y-117059104D01*
X112001303Y-117344819D02*
X112334636Y-116344819D01*
X112334636Y-116344819D02*
X112667969Y-117344819D01*
X110763207Y-96929580D02*
X110715588Y-96977200D01*
X110715588Y-96977200D02*
X110572731Y-97024819D01*
X110572731Y-97024819D02*
X110477493Y-97024819D01*
X110477493Y-97024819D02*
X110334636Y-96977200D01*
X110334636Y-96977200D02*
X110239398Y-96881961D01*
X110239398Y-96881961D02*
X110191779Y-96786723D01*
X110191779Y-96786723D02*
X110144160Y-96596247D01*
X110144160Y-96596247D02*
X110144160Y-96453390D01*
X110144160Y-96453390D02*
X110191779Y-96262914D01*
X110191779Y-96262914D02*
X110239398Y-96167676D01*
X110239398Y-96167676D02*
X110334636Y-96072438D01*
X110334636Y-96072438D02*
X110477493Y-96024819D01*
X110477493Y-96024819D02*
X110572731Y-96024819D01*
X110572731Y-96024819D02*
X110715588Y-96072438D01*
X110715588Y-96072438D02*
X110763207Y-96120057D01*
X111191779Y-97024819D02*
X111191779Y-96024819D01*
X111191779Y-96501009D02*
X111763207Y-96501009D01*
X111763207Y-97024819D02*
X111763207Y-96024819D01*
X112667969Y-96358152D02*
X112667969Y-97024819D01*
X112429874Y-95977200D02*
X112191779Y-96691485D01*
X112191779Y-96691485D02*
X112810826Y-96691485D01*
X110763207Y-94389580D02*
X110715588Y-94437200D01*
X110715588Y-94437200D02*
X110572731Y-94484819D01*
X110572731Y-94484819D02*
X110477493Y-94484819D01*
X110477493Y-94484819D02*
X110334636Y-94437200D01*
X110334636Y-94437200D02*
X110239398Y-94341961D01*
X110239398Y-94341961D02*
X110191779Y-94246723D01*
X110191779Y-94246723D02*
X110144160Y-94056247D01*
X110144160Y-94056247D02*
X110144160Y-93913390D01*
X110144160Y-93913390D02*
X110191779Y-93722914D01*
X110191779Y-93722914D02*
X110239398Y-93627676D01*
X110239398Y-93627676D02*
X110334636Y-93532438D01*
X110334636Y-93532438D02*
X110477493Y-93484819D01*
X110477493Y-93484819D02*
X110572731Y-93484819D01*
X110572731Y-93484819D02*
X110715588Y-93532438D01*
X110715588Y-93532438D02*
X110763207Y-93580057D01*
X111191779Y-94484819D02*
X111191779Y-93484819D01*
X111191779Y-93961009D02*
X111763207Y-93961009D01*
X111763207Y-94484819D02*
X111763207Y-93484819D01*
X112144160Y-93484819D02*
X112763207Y-93484819D01*
X112763207Y-93484819D02*
X112429874Y-93865771D01*
X112429874Y-93865771D02*
X112572731Y-93865771D01*
X112572731Y-93865771D02*
X112667969Y-93913390D01*
X112667969Y-93913390D02*
X112715588Y-93961009D01*
X112715588Y-93961009D02*
X112763207Y-94056247D01*
X112763207Y-94056247D02*
X112763207Y-94294342D01*
X112763207Y-94294342D02*
X112715588Y-94389580D01*
X112715588Y-94389580D02*
X112667969Y-94437200D01*
X112667969Y-94437200D02*
X112572731Y-94484819D01*
X112572731Y-94484819D02*
X112287017Y-94484819D01*
X112287017Y-94484819D02*
X112191779Y-94437200D01*
X112191779Y-94437200D02*
X112144160Y-94389580D01*
X110763207Y-91849580D02*
X110715588Y-91897200D01*
X110715588Y-91897200D02*
X110572731Y-91944819D01*
X110572731Y-91944819D02*
X110477493Y-91944819D01*
X110477493Y-91944819D02*
X110334636Y-91897200D01*
X110334636Y-91897200D02*
X110239398Y-91801961D01*
X110239398Y-91801961D02*
X110191779Y-91706723D01*
X110191779Y-91706723D02*
X110144160Y-91516247D01*
X110144160Y-91516247D02*
X110144160Y-91373390D01*
X110144160Y-91373390D02*
X110191779Y-91182914D01*
X110191779Y-91182914D02*
X110239398Y-91087676D01*
X110239398Y-91087676D02*
X110334636Y-90992438D01*
X110334636Y-90992438D02*
X110477493Y-90944819D01*
X110477493Y-90944819D02*
X110572731Y-90944819D01*
X110572731Y-90944819D02*
X110715588Y-90992438D01*
X110715588Y-90992438D02*
X110763207Y-91040057D01*
X111191779Y-91944819D02*
X111191779Y-90944819D01*
X111191779Y-91421009D02*
X111763207Y-91421009D01*
X111763207Y-91944819D02*
X111763207Y-90944819D01*
X112191779Y-91040057D02*
X112239398Y-90992438D01*
X112239398Y-90992438D02*
X112334636Y-90944819D01*
X112334636Y-90944819D02*
X112572731Y-90944819D01*
X112572731Y-90944819D02*
X112667969Y-90992438D01*
X112667969Y-90992438D02*
X112715588Y-91040057D01*
X112715588Y-91040057D02*
X112763207Y-91135295D01*
X112763207Y-91135295D02*
X112763207Y-91230533D01*
X112763207Y-91230533D02*
X112715588Y-91373390D01*
X112715588Y-91373390D02*
X112144160Y-91944819D01*
X112144160Y-91944819D02*
X112763207Y-91944819D01*
X110763207Y-89309580D02*
X110715588Y-89357200D01*
X110715588Y-89357200D02*
X110572731Y-89404819D01*
X110572731Y-89404819D02*
X110477493Y-89404819D01*
X110477493Y-89404819D02*
X110334636Y-89357200D01*
X110334636Y-89357200D02*
X110239398Y-89261961D01*
X110239398Y-89261961D02*
X110191779Y-89166723D01*
X110191779Y-89166723D02*
X110144160Y-88976247D01*
X110144160Y-88976247D02*
X110144160Y-88833390D01*
X110144160Y-88833390D02*
X110191779Y-88642914D01*
X110191779Y-88642914D02*
X110239398Y-88547676D01*
X110239398Y-88547676D02*
X110334636Y-88452438D01*
X110334636Y-88452438D02*
X110477493Y-88404819D01*
X110477493Y-88404819D02*
X110572731Y-88404819D01*
X110572731Y-88404819D02*
X110715588Y-88452438D01*
X110715588Y-88452438D02*
X110763207Y-88500057D01*
X111191779Y-89404819D02*
X111191779Y-88404819D01*
X111191779Y-88881009D02*
X111763207Y-88881009D01*
X111763207Y-89404819D02*
X111763207Y-88404819D01*
X112763207Y-89404819D02*
X112191779Y-89404819D01*
X112477493Y-89404819D02*
X112477493Y-88404819D01*
X112477493Y-88404819D02*
X112382255Y-88547676D01*
X112382255Y-88547676D02*
X112287017Y-88642914D01*
X112287017Y-88642914D02*
X112191779Y-88690533D01*
X112217200Y-76545839D02*
X112264819Y-76402982D01*
X112264819Y-76402982D02*
X112264819Y-76164887D01*
X112264819Y-76164887D02*
X112217200Y-76069649D01*
X112217200Y-76069649D02*
X112169580Y-76022030D01*
X112169580Y-76022030D02*
X112074342Y-75974411D01*
X112074342Y-75974411D02*
X111979104Y-75974411D01*
X111979104Y-75974411D02*
X111883866Y-76022030D01*
X111883866Y-76022030D02*
X111836247Y-76069649D01*
X111836247Y-76069649D02*
X111788628Y-76164887D01*
X111788628Y-76164887D02*
X111741009Y-76355363D01*
X111741009Y-76355363D02*
X111693390Y-76450601D01*
X111693390Y-76450601D02*
X111645771Y-76498220D01*
X111645771Y-76498220D02*
X111550533Y-76545839D01*
X111550533Y-76545839D02*
X111455295Y-76545839D01*
X111455295Y-76545839D02*
X111360057Y-76498220D01*
X111360057Y-76498220D02*
X111312438Y-76450601D01*
X111312438Y-76450601D02*
X111264819Y-76355363D01*
X111264819Y-76355363D02*
X111264819Y-76117268D01*
X111264819Y-76117268D02*
X111312438Y-75974411D01*
X111461779Y-78863866D02*
X112223684Y-78863866D01*
X111842731Y-79244819D02*
X111842731Y-78482914D01*
X111883866Y-81578220D02*
X111883866Y-80816316D01*
X156984819Y-103946077D02*
X157984819Y-103612744D01*
X157984819Y-103612744D02*
X156984819Y-103279411D01*
X157937200Y-102993696D02*
X157984819Y-102850839D01*
X157984819Y-102850839D02*
X157984819Y-102612744D01*
X157984819Y-102612744D02*
X157937200Y-102517506D01*
X157937200Y-102517506D02*
X157889580Y-102469887D01*
X157889580Y-102469887D02*
X157794342Y-102422268D01*
X157794342Y-102422268D02*
X157699104Y-102422268D01*
X157699104Y-102422268D02*
X157603866Y-102469887D01*
X157603866Y-102469887D02*
X157556247Y-102517506D01*
X157556247Y-102517506D02*
X157508628Y-102612744D01*
X157508628Y-102612744D02*
X157461009Y-102803220D01*
X157461009Y-102803220D02*
X157413390Y-102898458D01*
X157413390Y-102898458D02*
X157365771Y-102946077D01*
X157365771Y-102946077D02*
X157270533Y-102993696D01*
X157270533Y-102993696D02*
X157175295Y-102993696D01*
X157175295Y-102993696D02*
X157080057Y-102946077D01*
X157080057Y-102946077D02*
X157032438Y-102898458D01*
X157032438Y-102898458D02*
X156984819Y-102803220D01*
X156984819Y-102803220D02*
X156984819Y-102565125D01*
X156984819Y-102565125D02*
X157032438Y-102422268D01*
X157937200Y-102041315D02*
X157984819Y-101898458D01*
X157984819Y-101898458D02*
X157984819Y-101660363D01*
X157984819Y-101660363D02*
X157937200Y-101565125D01*
X157937200Y-101565125D02*
X157889580Y-101517506D01*
X157889580Y-101517506D02*
X157794342Y-101469887D01*
X157794342Y-101469887D02*
X157699104Y-101469887D01*
X157699104Y-101469887D02*
X157603866Y-101517506D01*
X157603866Y-101517506D02*
X157556247Y-101565125D01*
X157556247Y-101565125D02*
X157508628Y-101660363D01*
X157508628Y-101660363D02*
X157461009Y-101850839D01*
X157461009Y-101850839D02*
X157413390Y-101946077D01*
X157413390Y-101946077D02*
X157365771Y-101993696D01*
X157365771Y-101993696D02*
X157270533Y-102041315D01*
X157270533Y-102041315D02*
X157175295Y-102041315D01*
X157175295Y-102041315D02*
X157080057Y-101993696D01*
X157080057Y-101993696D02*
X157032438Y-101946077D01*
X157032438Y-101946077D02*
X156984819Y-101850839D01*
X156984819Y-101850839D02*
X156984819Y-101612744D01*
X156984819Y-101612744D02*
X157032438Y-101469887D01*
X156984819Y-112201077D02*
X157984819Y-111867744D01*
X157984819Y-111867744D02*
X156984819Y-111534411D01*
X157937200Y-111248696D02*
X157984819Y-111105839D01*
X157984819Y-111105839D02*
X157984819Y-110867744D01*
X157984819Y-110867744D02*
X157937200Y-110772506D01*
X157937200Y-110772506D02*
X157889580Y-110724887D01*
X157889580Y-110724887D02*
X157794342Y-110677268D01*
X157794342Y-110677268D02*
X157699104Y-110677268D01*
X157699104Y-110677268D02*
X157603866Y-110724887D01*
X157603866Y-110724887D02*
X157556247Y-110772506D01*
X157556247Y-110772506D02*
X157508628Y-110867744D01*
X157508628Y-110867744D02*
X157461009Y-111058220D01*
X157461009Y-111058220D02*
X157413390Y-111153458D01*
X157413390Y-111153458D02*
X157365771Y-111201077D01*
X157365771Y-111201077D02*
X157270533Y-111248696D01*
X157270533Y-111248696D02*
X157175295Y-111248696D01*
X157175295Y-111248696D02*
X157080057Y-111201077D01*
X157080057Y-111201077D02*
X157032438Y-111153458D01*
X157032438Y-111153458D02*
X156984819Y-111058220D01*
X156984819Y-111058220D02*
X156984819Y-110820125D01*
X156984819Y-110820125D02*
X157032438Y-110677268D01*
X157032438Y-107724411D02*
X156984819Y-107819649D01*
X156984819Y-107819649D02*
X156984819Y-107962506D01*
X156984819Y-107962506D02*
X157032438Y-108105363D01*
X157032438Y-108105363D02*
X157127676Y-108200601D01*
X157127676Y-108200601D02*
X157222914Y-108248220D01*
X157222914Y-108248220D02*
X157413390Y-108295839D01*
X157413390Y-108295839D02*
X157556247Y-108295839D01*
X157556247Y-108295839D02*
X157746723Y-108248220D01*
X157746723Y-108248220D02*
X157841961Y-108200601D01*
X157841961Y-108200601D02*
X157937200Y-108105363D01*
X157937200Y-108105363D02*
X157984819Y-107962506D01*
X157984819Y-107962506D02*
X157984819Y-107867268D01*
X157984819Y-107867268D02*
X157937200Y-107724411D01*
X157937200Y-107724411D02*
X157889580Y-107676792D01*
X157889580Y-107676792D02*
X157556247Y-107676792D01*
X157556247Y-107676792D02*
X157556247Y-107867268D01*
X157984819Y-107248220D02*
X156984819Y-107248220D01*
X156984819Y-107248220D02*
X157984819Y-106676792D01*
X157984819Y-106676792D02*
X156984819Y-106676792D01*
X157984819Y-106200601D02*
X156984819Y-106200601D01*
X156984819Y-106200601D02*
X156984819Y-105962506D01*
X156984819Y-105962506D02*
X157032438Y-105819649D01*
X157032438Y-105819649D02*
X157127676Y-105724411D01*
X157127676Y-105724411D02*
X157222914Y-105676792D01*
X157222914Y-105676792D02*
X157413390Y-105629173D01*
X157413390Y-105629173D02*
X157556247Y-105629173D01*
X157556247Y-105629173D02*
X157746723Y-105676792D01*
X157746723Y-105676792D02*
X157841961Y-105724411D01*
X157841961Y-105724411D02*
X157937200Y-105819649D01*
X157937200Y-105819649D02*
X157984819Y-105962506D01*
X157984819Y-105962506D02*
X157984819Y-106200601D01*
X154921009Y-95214887D02*
X154968628Y-95072030D01*
X154968628Y-95072030D02*
X155016247Y-95024411D01*
X155016247Y-95024411D02*
X155111485Y-94976792D01*
X155111485Y-94976792D02*
X155254342Y-94976792D01*
X155254342Y-94976792D02*
X155349580Y-95024411D01*
X155349580Y-95024411D02*
X155397200Y-95072030D01*
X155397200Y-95072030D02*
X155444819Y-95167268D01*
X155444819Y-95167268D02*
X155444819Y-95548220D01*
X155444819Y-95548220D02*
X154444819Y-95548220D01*
X154444819Y-95548220D02*
X154444819Y-95214887D01*
X154444819Y-95214887D02*
X154492438Y-95119649D01*
X154492438Y-95119649D02*
X154540057Y-95072030D01*
X154540057Y-95072030D02*
X154635295Y-95024411D01*
X154635295Y-95024411D02*
X154730533Y-95024411D01*
X154730533Y-95024411D02*
X154825771Y-95072030D01*
X154825771Y-95072030D02*
X154873390Y-95119649D01*
X154873390Y-95119649D02*
X154921009Y-95214887D01*
X154921009Y-95214887D02*
X154921009Y-95548220D01*
X155159104Y-94595839D02*
X155159104Y-94119649D01*
X155444819Y-94691077D02*
X154444819Y-94357744D01*
X154444819Y-94357744D02*
X155444819Y-94024411D01*
X154444819Y-93833934D02*
X154444819Y-93262506D01*
X155444819Y-93548220D02*
X154444819Y-93548220D01*
X154444819Y-93072029D02*
X154444819Y-92500601D01*
X155444819Y-92786315D02*
X154444819Y-92786315D01*
X155063866Y-92167267D02*
X155063866Y-91405363D01*
X155444819Y-91786315D02*
X154682914Y-91786315D01*
X154492438Y-81689411D02*
X154444819Y-81784649D01*
X154444819Y-81784649D02*
X154444819Y-81927506D01*
X154444819Y-81927506D02*
X154492438Y-82070363D01*
X154492438Y-82070363D02*
X154587676Y-82165601D01*
X154587676Y-82165601D02*
X154682914Y-82213220D01*
X154682914Y-82213220D02*
X154873390Y-82260839D01*
X154873390Y-82260839D02*
X155016247Y-82260839D01*
X155016247Y-82260839D02*
X155206723Y-82213220D01*
X155206723Y-82213220D02*
X155301961Y-82165601D01*
X155301961Y-82165601D02*
X155397200Y-82070363D01*
X155397200Y-82070363D02*
X155444819Y-81927506D01*
X155444819Y-81927506D02*
X155444819Y-81832268D01*
X155444819Y-81832268D02*
X155397200Y-81689411D01*
X155397200Y-81689411D02*
X155349580Y-81641792D01*
X155349580Y-81641792D02*
X155016247Y-81641792D01*
X155016247Y-81641792D02*
X155016247Y-81832268D01*
X155444819Y-81213220D02*
X154444819Y-81213220D01*
X154444819Y-81213220D02*
X155444819Y-80641792D01*
X155444819Y-80641792D02*
X154444819Y-80641792D01*
X155444819Y-80165601D02*
X154444819Y-80165601D01*
X154444819Y-80165601D02*
X154444819Y-79927506D01*
X154444819Y-79927506D02*
X154492438Y-79784649D01*
X154492438Y-79784649D02*
X154587676Y-79689411D01*
X154587676Y-79689411D02*
X154682914Y-79641792D01*
X154682914Y-79641792D02*
X154873390Y-79594173D01*
X154873390Y-79594173D02*
X155016247Y-79594173D01*
X155016247Y-79594173D02*
X155206723Y-79641792D01*
X155206723Y-79641792D02*
X155301961Y-79689411D01*
X155301961Y-79689411D02*
X155397200Y-79784649D01*
X155397200Y-79784649D02*
X155444819Y-79927506D01*
X155444819Y-79927506D02*
X155444819Y-80165601D01*
X155063866Y-71418220D02*
X155063866Y-70656316D01*
X155444819Y-71037268D02*
X154682914Y-71037268D01*
X152274819Y-107273333D02*
X152989104Y-107273333D01*
X152989104Y-107273333D02*
X153131961Y-107320952D01*
X153131961Y-107320952D02*
X153227200Y-107416190D01*
X153227200Y-107416190D02*
X153274819Y-107559047D01*
X153274819Y-107559047D02*
X153274819Y-107654285D01*
X152274819Y-106368571D02*
X152274819Y-106559047D01*
X152274819Y-106559047D02*
X152322438Y-106654285D01*
X152322438Y-106654285D02*
X152370057Y-106701904D01*
X152370057Y-106701904D02*
X152512914Y-106797142D01*
X152512914Y-106797142D02*
X152703390Y-106844761D01*
X152703390Y-106844761D02*
X153084342Y-106844761D01*
X153084342Y-106844761D02*
X153179580Y-106797142D01*
X153179580Y-106797142D02*
X153227200Y-106749523D01*
X153227200Y-106749523D02*
X153274819Y-106654285D01*
X153274819Y-106654285D02*
X153274819Y-106463809D01*
X153274819Y-106463809D02*
X153227200Y-106368571D01*
X153227200Y-106368571D02*
X153179580Y-106320952D01*
X153179580Y-106320952D02*
X153084342Y-106273333D01*
X153084342Y-106273333D02*
X152846247Y-106273333D01*
X152846247Y-106273333D02*
X152751009Y-106320952D01*
X152751009Y-106320952D02*
X152703390Y-106368571D01*
X152703390Y-106368571D02*
X152655771Y-106463809D01*
X152655771Y-106463809D02*
X152655771Y-106654285D01*
X152655771Y-106654285D02*
X152703390Y-106749523D01*
X152703390Y-106749523D02*
X152751009Y-106797142D01*
X152751009Y-106797142D02*
X152846247Y-106844761D01*
X150024819Y-87963333D02*
X150739104Y-87963333D01*
X150739104Y-87963333D02*
X150881961Y-88010952D01*
X150881961Y-88010952D02*
X150977200Y-88106190D01*
X150977200Y-88106190D02*
X151024819Y-88249047D01*
X151024819Y-88249047D02*
X151024819Y-88344285D01*
X150024819Y-87010952D02*
X150024819Y-87487142D01*
X150024819Y-87487142D02*
X150501009Y-87534761D01*
X150501009Y-87534761D02*
X150453390Y-87487142D01*
X150453390Y-87487142D02*
X150405771Y-87391904D01*
X150405771Y-87391904D02*
X150405771Y-87153809D01*
X150405771Y-87153809D02*
X150453390Y-87058571D01*
X150453390Y-87058571D02*
X150501009Y-87010952D01*
X150501009Y-87010952D02*
X150596247Y-86963333D01*
X150596247Y-86963333D02*
X150834342Y-86963333D01*
X150834342Y-86963333D02*
X150929580Y-87010952D01*
X150929580Y-87010952D02*
X150977200Y-87058571D01*
X150977200Y-87058571D02*
X151024819Y-87153809D01*
X151024819Y-87153809D02*
X151024819Y-87391904D01*
X151024819Y-87391904D02*
X150977200Y-87487142D01*
X150977200Y-87487142D02*
X150929580Y-87534761D01*
X113966666Y-85584819D02*
X113966666Y-86299104D01*
X113966666Y-86299104D02*
X113919047Y-86441961D01*
X113919047Y-86441961D02*
X113823809Y-86537200D01*
X113823809Y-86537200D02*
X113680952Y-86584819D01*
X113680952Y-86584819D02*
X113585714Y-86584819D01*
X114395238Y-85680057D02*
X114442857Y-85632438D01*
X114442857Y-85632438D02*
X114538095Y-85584819D01*
X114538095Y-85584819D02*
X114776190Y-85584819D01*
X114776190Y-85584819D02*
X114871428Y-85632438D01*
X114871428Y-85632438D02*
X114919047Y-85680057D01*
X114919047Y-85680057D02*
X114966666Y-85775295D01*
X114966666Y-85775295D02*
X114966666Y-85870533D01*
X114966666Y-85870533D02*
X114919047Y-86013390D01*
X114919047Y-86013390D02*
X114347619Y-86584819D01*
X114347619Y-86584819D02*
X114966666Y-86584819D01*
X113966666Y-119064819D02*
X113966666Y-119779104D01*
X113966666Y-119779104D02*
X113919047Y-119921961D01*
X113919047Y-119921961D02*
X113823809Y-120017200D01*
X113823809Y-120017200D02*
X113680952Y-120064819D01*
X113680952Y-120064819D02*
X113585714Y-120064819D01*
X114871428Y-119398152D02*
X114871428Y-120064819D01*
X114633333Y-119017200D02*
X114395238Y-119731485D01*
X114395238Y-119731485D02*
X115014285Y-119731485D01*
X150024819Y-75263333D02*
X150739104Y-75263333D01*
X150739104Y-75263333D02*
X150881961Y-75310952D01*
X150881961Y-75310952D02*
X150977200Y-75406190D01*
X150977200Y-75406190D02*
X151024819Y-75549047D01*
X151024819Y-75549047D02*
X151024819Y-75644285D01*
X150024819Y-74882380D02*
X150024819Y-74263333D01*
X150024819Y-74263333D02*
X150405771Y-74596666D01*
X150405771Y-74596666D02*
X150405771Y-74453809D01*
X150405771Y-74453809D02*
X150453390Y-74358571D01*
X150453390Y-74358571D02*
X150501009Y-74310952D01*
X150501009Y-74310952D02*
X150596247Y-74263333D01*
X150596247Y-74263333D02*
X150834342Y-74263333D01*
X150834342Y-74263333D02*
X150929580Y-74310952D01*
X150929580Y-74310952D02*
X150977200Y-74358571D01*
X150977200Y-74358571D02*
X151024819Y-74453809D01*
X151024819Y-74453809D02*
X151024819Y-74739523D01*
X151024819Y-74739523D02*
X150977200Y-74834761D01*
X150977200Y-74834761D02*
X150929580Y-74882380D01*
X113966666Y-72884819D02*
X113966666Y-73599104D01*
X113966666Y-73599104D02*
X113919047Y-73741961D01*
X113919047Y-73741961D02*
X113823809Y-73837200D01*
X113823809Y-73837200D02*
X113680952Y-73884819D01*
X113680952Y-73884819D02*
X113585714Y-73884819D01*
X114966666Y-73884819D02*
X114395238Y-73884819D01*
X114680952Y-73884819D02*
X114680952Y-72884819D01*
X114680952Y-72884819D02*
X114585714Y-73027676D01*
X114585714Y-73027676D02*
X114490476Y-73122914D01*
X114490476Y-73122914D02*
X114395238Y-73170533D01*
X133425714Y-73789104D02*
X133901904Y-73789104D01*
X133330476Y-74074819D02*
X133663809Y-73074819D01*
X133663809Y-73074819D02*
X133997142Y-74074819D01*
X134854285Y-74074819D02*
X134282857Y-74074819D01*
X134568571Y-74074819D02*
X134568571Y-73074819D01*
X134568571Y-73074819D02*
X134473333Y-73217676D01*
X134473333Y-73217676D02*
X134378095Y-73312914D01*
X134378095Y-73312914D02*
X134282857Y-73360533D01*
X132878095Y-113714819D02*
X132878095Y-114524342D01*
X132878095Y-114524342D02*
X132925714Y-114619580D01*
X132925714Y-114619580D02*
X132973333Y-114667200D01*
X132973333Y-114667200D02*
X133068571Y-114714819D01*
X133068571Y-114714819D02*
X133259047Y-114714819D01*
X133259047Y-114714819D02*
X133354285Y-114667200D01*
X133354285Y-114667200D02*
X133401904Y-114619580D01*
X133401904Y-114619580D02*
X133449523Y-114524342D01*
X133449523Y-114524342D02*
X133449523Y-113714819D01*
X133878095Y-114667200D02*
X134020952Y-114714819D01*
X134020952Y-114714819D02*
X134259047Y-114714819D01*
X134259047Y-114714819D02*
X134354285Y-114667200D01*
X134354285Y-114667200D02*
X134401904Y-114619580D01*
X134401904Y-114619580D02*
X134449523Y-114524342D01*
X134449523Y-114524342D02*
X134449523Y-114429104D01*
X134449523Y-114429104D02*
X134401904Y-114333866D01*
X134401904Y-114333866D02*
X134354285Y-114286247D01*
X134354285Y-114286247D02*
X134259047Y-114238628D01*
X134259047Y-114238628D02*
X134068571Y-114191009D01*
X134068571Y-114191009D02*
X133973333Y-114143390D01*
X133973333Y-114143390D02*
X133925714Y-114095771D01*
X133925714Y-114095771D02*
X133878095Y-114000533D01*
X133878095Y-114000533D02*
X133878095Y-113905295D01*
X133878095Y-113905295D02*
X133925714Y-113810057D01*
X133925714Y-113810057D02*
X133973333Y-113762438D01*
X133973333Y-113762438D02*
X134068571Y-113714819D01*
X134068571Y-113714819D02*
X134306666Y-113714819D01*
X134306666Y-113714819D02*
X134449523Y-113762438D01*
X135211428Y-114191009D02*
X135354285Y-114238628D01*
X135354285Y-114238628D02*
X135401904Y-114286247D01*
X135401904Y-114286247D02*
X135449523Y-114381485D01*
X135449523Y-114381485D02*
X135449523Y-114524342D01*
X135449523Y-114524342D02*
X135401904Y-114619580D01*
X135401904Y-114619580D02*
X135354285Y-114667200D01*
X135354285Y-114667200D02*
X135259047Y-114714819D01*
X135259047Y-114714819D02*
X134878095Y-114714819D01*
X134878095Y-114714819D02*
X134878095Y-113714819D01*
X134878095Y-113714819D02*
X135211428Y-113714819D01*
X135211428Y-113714819D02*
X135306666Y-113762438D01*
X135306666Y-113762438D02*
X135354285Y-113810057D01*
X135354285Y-113810057D02*
X135401904Y-113905295D01*
X135401904Y-113905295D02*
X135401904Y-114000533D01*
X135401904Y-114000533D02*
X135354285Y-114095771D01*
X135354285Y-114095771D02*
X135306666Y-114143390D01*
X135306666Y-114143390D02*
X135211428Y-114191009D01*
X135211428Y-114191009D02*
X134878095Y-114191009D01*
D11*
%TO.C,J5*%
X151570000Y-84740000D02*
X158310000Y-84740000D01*
X157790000Y-90520000D02*
X157790000Y-84740000D01*
X151570000Y-90520000D02*
X151570000Y-84740000D01*
X157910000Y-90760000D02*
X158550000Y-90760000D01*
X151570000Y-90520000D02*
X158310000Y-90520000D01*
X152690000Y-90520000D02*
X152690000Y-84740000D01*
X158310000Y-90520000D02*
X158310000Y-84740000D01*
X158550000Y-90760000D02*
X158550000Y-90360000D01*
%TO.C,J2*%
X114300000Y-87570000D02*
X115630000Y-87570000D01*
X115630000Y-87570000D02*
X115630000Y-88900000D01*
X112970000Y-90170000D02*
X112970000Y-97850000D01*
X112970000Y-90170000D02*
X115630000Y-90170000D01*
X115630000Y-90170000D02*
X115630000Y-97850000D01*
X112970000Y-97850000D02*
X115630000Y-97850000D01*
%TO.C,J4*%
X115630000Y-102810000D02*
X112970000Y-102810000D01*
X115630000Y-115570000D02*
X115630000Y-102810000D01*
X112970000Y-118170000D02*
X112970000Y-116840000D01*
X112970000Y-115570000D02*
X112970000Y-102810000D01*
X115630000Y-115570000D02*
X112970000Y-115570000D01*
X114300000Y-118170000D02*
X112970000Y-118170000D01*
%TO.C,J3*%
X158550000Y-78060000D02*
X158550000Y-77660000D01*
X158310000Y-77820000D02*
X158310000Y-72040000D01*
X152690000Y-77820000D02*
X152690000Y-72040000D01*
X151570000Y-77820000D02*
X158310000Y-77820000D01*
X157910000Y-78060000D02*
X158550000Y-78060000D01*
X151570000Y-77820000D02*
X151570000Y-72040000D01*
X157790000Y-77820000D02*
X157790000Y-72040000D01*
X151570000Y-72040000D02*
X158310000Y-72040000D01*
%TO.C,J1*%
X114300000Y-74870000D02*
X115630000Y-74870000D01*
X115630000Y-77470000D02*
X115630000Y-82610000D01*
X112970000Y-77470000D02*
X112970000Y-82610000D01*
X112970000Y-77470000D02*
X115630000Y-77470000D01*
X115630000Y-74870000D02*
X115630000Y-76200000D01*
X112970000Y-82610000D02*
X115630000Y-82610000D01*
%TO.C,A1*%
X127790000Y-77430000D02*
X125120000Y-77430000D01*
X138080000Y-120740000D02*
X130200000Y-120740000D01*
X143160000Y-118200000D02*
X143160000Y-74760000D01*
X130200000Y-120740000D02*
X130200000Y-110320000D01*
X138080000Y-110320000D02*
X138080000Y-120740000D01*
X143160000Y-118200000D02*
X138080000Y-118200000D01*
X125120000Y-79970000D02*
X125120000Y-118200000D01*
X127790000Y-115530000D02*
X125120000Y-115530000D01*
X140490000Y-77430000D02*
X140490000Y-115530000D01*
X127790000Y-79970000D02*
X127790000Y-77430000D01*
X140490000Y-115530000D02*
X143160000Y-115530000D01*
X140490000Y-77430000D02*
X143160000Y-77430000D01*
X127790000Y-79970000D02*
X125120000Y-79970000D01*
X143160000Y-74760000D02*
X125120000Y-74760000D01*
X125120000Y-118200000D02*
X130200000Y-118200000D01*
X125120000Y-74760000D02*
X125120000Y-77430000D01*
X130200000Y-110320000D02*
X138080000Y-110320000D01*
X127790000Y-79970000D02*
X127790000Y-115530000D01*
%TD*%
M02*
