M48
; DRILL file {KiCad 7.0.9} date Saturday, November 18, 2023 at 09:52:11 PM
; FORMAT={-:-/ absolute / inch / decimal}
; #@! TF.CreationDate,2023-11-18T21:52:11-06:00
; #@! TF.GenerationSoftware,Kicad,Pcbnew,7.0.9
; #@! TF.FileFunction,Plated,1,2,PTH
FMAT,2
INCH
; #@! TA.AperFunction,Plated,PTH,ComponentDrill
T1C0.0335
; #@! TA.AperFunction,Plated,PTH,ComponentDrill
T2C0.0394
; #@! TA.AperFunction,Plated,PTH,ComponentDrill
T3C0.0433
%
G90
G05
T1
X6.1Y-4.0449
X6.1Y-4.2102
X6.1Y-4.3756
T2
X4.5Y-3.0
X4.5Y-3.1
X4.5Y-3.2
X4.5Y-3.5
X4.5Y-3.6
X4.5Y-3.7
X4.5Y-3.8
X4.5Y-4.1
X4.5Y-4.2
X4.5Y-4.3
X4.5Y-4.4
X4.5Y-4.5
X4.5Y-4.6
X4.9811Y-3.0984
X4.9811Y-3.1984
X4.9811Y-3.2984
X4.9811Y-3.3984
X4.9811Y-3.4984
X4.9811Y-3.5984
X4.9811Y-3.6984
X4.9811Y-3.7984
X4.9811Y-3.8984
X4.9811Y-3.9984
X4.9811Y-4.0984
X4.9811Y-4.1984
X4.9811Y-4.2984
X4.9811Y-4.3984
X4.9811Y-4.4984
X5.5811Y-3.0984
X5.5811Y-3.1984
X5.5811Y-3.2984
X5.5811Y-3.3984
X5.5811Y-3.4984
X5.5811Y-3.5984
X5.5811Y-3.6984
X5.5811Y-3.7984
X5.5811Y-3.8984
X5.5811Y-3.9984
X5.5811Y-4.0984
X5.5811Y-4.1984
X5.5811Y-4.2984
X5.5811Y-4.3984
X5.5811Y-4.4984
T3
X6.1Y-2.9
X6.1Y-3.0
X6.1Y-3.4
X6.1Y-3.5
T0
M30
