%TF.GenerationSoftware,KiCad,Pcbnew,7.0.9*%
%TF.CreationDate,2023-11-18T21:52:10-06:00*%
%TF.ProjectId,batttlebot_pcb,62617474-746c-4656-926f-745f7063622e,rev?*%
%TF.SameCoordinates,Original*%
%TF.FileFunction,Drillmap*%
%TF.FilePolarity,Positive*%
%FSLAX45Y45*%
G04 Gerber Fmt 4.5, Leading zero omitted, Abs format (unit mm)*
G04 Created by KiCad (PCBNEW 7.0.9) date 2023-11-18 21:52:10*
%MOMM*%
%LPD*%
G01*
G04 APERTURE LIST*
%ADD10C,0.100000*%
%ADD11C,0.200000*%
%ADD12C,0.110000*%
G04 APERTURE END LIST*
D10*
X10922000Y-6858000D02*
X16002000Y-6858000D01*
X16002000Y-12446000D01*
X10922000Y-12446000D01*
X10922000Y-6858000D01*
D11*
D10*
X15451500Y-10231500D02*
X15536500Y-10316500D01*
X15536500Y-10231500D02*
X15451500Y-10316500D01*
X15451500Y-10651500D02*
X15536500Y-10736500D01*
X15536500Y-10651500D02*
X15451500Y-10736500D01*
X15451500Y-11071500D02*
X15536500Y-11156500D01*
X15536500Y-11071500D02*
X15451500Y-11156500D01*
X11480000Y-7620000D02*
G75*
G03*
X11480000Y-7620000I-50000J0D01*
G01*
X11480000Y-7874000D02*
G75*
G03*
X11480000Y-7874000I-50000J0D01*
G01*
X11480000Y-8128000D02*
G75*
G03*
X11480000Y-8128000I-50000J0D01*
G01*
X11480000Y-8890000D02*
G75*
G03*
X11480000Y-8890000I-50000J0D01*
G01*
X11480000Y-9144000D02*
G75*
G03*
X11480000Y-9144000I-50000J0D01*
G01*
X11480000Y-9398000D02*
G75*
G03*
X11480000Y-9398000I-50000J0D01*
G01*
X11480000Y-9652000D02*
G75*
G03*
X11480000Y-9652000I-50000J0D01*
G01*
X11480000Y-10414000D02*
G75*
G03*
X11480000Y-10414000I-50000J0D01*
G01*
X11480000Y-10668000D02*
G75*
G03*
X11480000Y-10668000I-50000J0D01*
G01*
X11480000Y-10922000D02*
G75*
G03*
X11480000Y-10922000I-50000J0D01*
G01*
X11480000Y-11176000D02*
G75*
G03*
X11480000Y-11176000I-50000J0D01*
G01*
X11480000Y-11430000D02*
G75*
G03*
X11480000Y-11430000I-50000J0D01*
G01*
X11480000Y-11684000D02*
G75*
G03*
X11480000Y-11684000I-50000J0D01*
G01*
X12702000Y-7870000D02*
G75*
G03*
X12702000Y-7870000I-50000J0D01*
G01*
X12702000Y-8124000D02*
G75*
G03*
X12702000Y-8124000I-50000J0D01*
G01*
X12702000Y-8378000D02*
G75*
G03*
X12702000Y-8378000I-50000J0D01*
G01*
X12702000Y-8632000D02*
G75*
G03*
X12702000Y-8632000I-50000J0D01*
G01*
X12702000Y-8886000D02*
G75*
G03*
X12702000Y-8886000I-50000J0D01*
G01*
X12702000Y-9140000D02*
G75*
G03*
X12702000Y-9140000I-50000J0D01*
G01*
X12702000Y-9394000D02*
G75*
G03*
X12702000Y-9394000I-50000J0D01*
G01*
X12702000Y-9648000D02*
G75*
G03*
X12702000Y-9648000I-50000J0D01*
G01*
X12702000Y-9902000D02*
G75*
G03*
X12702000Y-9902000I-50000J0D01*
G01*
X12702000Y-10156000D02*
G75*
G03*
X12702000Y-10156000I-50000J0D01*
G01*
X12702000Y-10410000D02*
G75*
G03*
X12702000Y-10410000I-50000J0D01*
G01*
X12702000Y-10664000D02*
G75*
G03*
X12702000Y-10664000I-50000J0D01*
G01*
X12702000Y-10918000D02*
G75*
G03*
X12702000Y-10918000I-50000J0D01*
G01*
X12702000Y-11172000D02*
G75*
G03*
X12702000Y-11172000I-50000J0D01*
G01*
X12702000Y-11426000D02*
G75*
G03*
X12702000Y-11426000I-50000J0D01*
G01*
X14226000Y-7870000D02*
G75*
G03*
X14226000Y-7870000I-50000J0D01*
G01*
X14226000Y-8124000D02*
G75*
G03*
X14226000Y-8124000I-50000J0D01*
G01*
X14226000Y-8378000D02*
G75*
G03*
X14226000Y-8378000I-50000J0D01*
G01*
X14226000Y-8632000D02*
G75*
G03*
X14226000Y-8632000I-50000J0D01*
G01*
X14226000Y-8886000D02*
G75*
G03*
X14226000Y-8886000I-50000J0D01*
G01*
X14226000Y-9140000D02*
G75*
G03*
X14226000Y-9140000I-50000J0D01*
G01*
X14226000Y-9394000D02*
G75*
G03*
X14226000Y-9394000I-50000J0D01*
G01*
X14226000Y-9648000D02*
G75*
G03*
X14226000Y-9648000I-50000J0D01*
G01*
X14226000Y-9902000D02*
G75*
G03*
X14226000Y-9902000I-50000J0D01*
G01*
X14226000Y-10156000D02*
G75*
G03*
X14226000Y-10156000I-50000J0D01*
G01*
X14226000Y-10410000D02*
G75*
G03*
X14226000Y-10410000I-50000J0D01*
G01*
X14226000Y-10664000D02*
G75*
G03*
X14226000Y-10664000I-50000J0D01*
G01*
X14226000Y-10918000D02*
G75*
G03*
X14226000Y-10918000I-50000J0D01*
G01*
X14226000Y-11172000D02*
G75*
G03*
X14226000Y-11172000I-50000J0D01*
G01*
X14226000Y-11426000D02*
G75*
G03*
X14226000Y-11426000I-50000J0D01*
G01*
D12*
X15494000Y-7311000D02*
X15494000Y-7421000D01*
X15439000Y-7366000D02*
X15549000Y-7366000D01*
X15494000Y-7565000D02*
X15494000Y-7675000D01*
X15439000Y-7620000D02*
X15549000Y-7620000D01*
X15494000Y-8581000D02*
X15494000Y-8691000D01*
X15439000Y-8636000D02*
X15549000Y-8636000D01*
X15494000Y-8835000D02*
X15494000Y-8945000D01*
X15439000Y-8890000D02*
X15549000Y-8890000D01*
D11*
X11177777Y-12762484D02*
X11177777Y-12562484D01*
X11177777Y-12562484D02*
X11225396Y-12562484D01*
X11225396Y-12562484D02*
X11253967Y-12572008D01*
X11253967Y-12572008D02*
X11273015Y-12591055D01*
X11273015Y-12591055D02*
X11282539Y-12610103D01*
X11282539Y-12610103D02*
X11292062Y-12648198D01*
X11292062Y-12648198D02*
X11292062Y-12676769D01*
X11292062Y-12676769D02*
X11282539Y-12714865D01*
X11282539Y-12714865D02*
X11273015Y-12733912D01*
X11273015Y-12733912D02*
X11253967Y-12752960D01*
X11253967Y-12752960D02*
X11225396Y-12762484D01*
X11225396Y-12762484D02*
X11177777Y-12762484D01*
X11377777Y-12762484D02*
X11377777Y-12629150D01*
X11377777Y-12667246D02*
X11387301Y-12648198D01*
X11387301Y-12648198D02*
X11396824Y-12638674D01*
X11396824Y-12638674D02*
X11415872Y-12629150D01*
X11415872Y-12629150D02*
X11434920Y-12629150D01*
X11501586Y-12762484D02*
X11501586Y-12629150D01*
X11501586Y-12562484D02*
X11492062Y-12572008D01*
X11492062Y-12572008D02*
X11501586Y-12581531D01*
X11501586Y-12581531D02*
X11511110Y-12572008D01*
X11511110Y-12572008D02*
X11501586Y-12562484D01*
X11501586Y-12562484D02*
X11501586Y-12581531D01*
X11625396Y-12762484D02*
X11606348Y-12752960D01*
X11606348Y-12752960D02*
X11596824Y-12733912D01*
X11596824Y-12733912D02*
X11596824Y-12562484D01*
X11730158Y-12762484D02*
X11711110Y-12752960D01*
X11711110Y-12752960D02*
X11701586Y-12733912D01*
X11701586Y-12733912D02*
X11701586Y-12562484D01*
X11958729Y-12762484D02*
X11958729Y-12562484D01*
X11958729Y-12562484D02*
X12025396Y-12705341D01*
X12025396Y-12705341D02*
X12092062Y-12562484D01*
X12092062Y-12562484D02*
X12092062Y-12762484D01*
X12273015Y-12762484D02*
X12273015Y-12657722D01*
X12273015Y-12657722D02*
X12263491Y-12638674D01*
X12263491Y-12638674D02*
X12244443Y-12629150D01*
X12244443Y-12629150D02*
X12206348Y-12629150D01*
X12206348Y-12629150D02*
X12187301Y-12638674D01*
X12273015Y-12752960D02*
X12253967Y-12762484D01*
X12253967Y-12762484D02*
X12206348Y-12762484D01*
X12206348Y-12762484D02*
X12187301Y-12752960D01*
X12187301Y-12752960D02*
X12177777Y-12733912D01*
X12177777Y-12733912D02*
X12177777Y-12714865D01*
X12177777Y-12714865D02*
X12187301Y-12695817D01*
X12187301Y-12695817D02*
X12206348Y-12686293D01*
X12206348Y-12686293D02*
X12253967Y-12686293D01*
X12253967Y-12686293D02*
X12273015Y-12676769D01*
X12368253Y-12629150D02*
X12368253Y-12829150D01*
X12368253Y-12638674D02*
X12387301Y-12629150D01*
X12387301Y-12629150D02*
X12425396Y-12629150D01*
X12425396Y-12629150D02*
X12444443Y-12638674D01*
X12444443Y-12638674D02*
X12453967Y-12648198D01*
X12453967Y-12648198D02*
X12463491Y-12667246D01*
X12463491Y-12667246D02*
X12463491Y-12724388D01*
X12463491Y-12724388D02*
X12453967Y-12743436D01*
X12453967Y-12743436D02*
X12444443Y-12752960D01*
X12444443Y-12752960D02*
X12425396Y-12762484D01*
X12425396Y-12762484D02*
X12387301Y-12762484D01*
X12387301Y-12762484D02*
X12368253Y-12752960D01*
X12549205Y-12743436D02*
X12558729Y-12752960D01*
X12558729Y-12752960D02*
X12549205Y-12762484D01*
X12549205Y-12762484D02*
X12539682Y-12752960D01*
X12539682Y-12752960D02*
X12549205Y-12743436D01*
X12549205Y-12743436D02*
X12549205Y-12762484D01*
X12549205Y-12638674D02*
X12558729Y-12648198D01*
X12558729Y-12648198D02*
X12549205Y-12657722D01*
X12549205Y-12657722D02*
X12539682Y-12648198D01*
X12539682Y-12648198D02*
X12549205Y-12638674D01*
X12549205Y-12638674D02*
X12549205Y-12657722D01*
D10*
X10832000Y-13048500D02*
X10917000Y-13133500D01*
X10917000Y-13048500D02*
X10832000Y-13133500D01*
D11*
X11215872Y-12982484D02*
X11234920Y-12982484D01*
X11234920Y-12982484D02*
X11253967Y-12992008D01*
X11253967Y-12992008D02*
X11263491Y-13001531D01*
X11263491Y-13001531D02*
X11273015Y-13020579D01*
X11273015Y-13020579D02*
X11282539Y-13058674D01*
X11282539Y-13058674D02*
X11282539Y-13106293D01*
X11282539Y-13106293D02*
X11273015Y-13144388D01*
X11273015Y-13144388D02*
X11263491Y-13163436D01*
X11263491Y-13163436D02*
X11253967Y-13172960D01*
X11253967Y-13172960D02*
X11234920Y-13182484D01*
X11234920Y-13182484D02*
X11215872Y-13182484D01*
X11215872Y-13182484D02*
X11196824Y-13172960D01*
X11196824Y-13172960D02*
X11187301Y-13163436D01*
X11187301Y-13163436D02*
X11177777Y-13144388D01*
X11177777Y-13144388D02*
X11168253Y-13106293D01*
X11168253Y-13106293D02*
X11168253Y-13058674D01*
X11168253Y-13058674D02*
X11177777Y-13020579D01*
X11177777Y-13020579D02*
X11187301Y-13001531D01*
X11187301Y-13001531D02*
X11196824Y-12992008D01*
X11196824Y-12992008D02*
X11215872Y-12982484D01*
X11368253Y-13163436D02*
X11377777Y-13172960D01*
X11377777Y-13172960D02*
X11368253Y-13182484D01*
X11368253Y-13182484D02*
X11358729Y-13172960D01*
X11358729Y-13172960D02*
X11368253Y-13163436D01*
X11368253Y-13163436D02*
X11368253Y-13182484D01*
X11492062Y-13068198D02*
X11473015Y-13058674D01*
X11473015Y-13058674D02*
X11463491Y-13049150D01*
X11463491Y-13049150D02*
X11453967Y-13030103D01*
X11453967Y-13030103D02*
X11453967Y-13020579D01*
X11453967Y-13020579D02*
X11463491Y-13001531D01*
X11463491Y-13001531D02*
X11473015Y-12992008D01*
X11473015Y-12992008D02*
X11492062Y-12982484D01*
X11492062Y-12982484D02*
X11530158Y-12982484D01*
X11530158Y-12982484D02*
X11549205Y-12992008D01*
X11549205Y-12992008D02*
X11558729Y-13001531D01*
X11558729Y-13001531D02*
X11568253Y-13020579D01*
X11568253Y-13020579D02*
X11568253Y-13030103D01*
X11568253Y-13030103D02*
X11558729Y-13049150D01*
X11558729Y-13049150D02*
X11549205Y-13058674D01*
X11549205Y-13058674D02*
X11530158Y-13068198D01*
X11530158Y-13068198D02*
X11492062Y-13068198D01*
X11492062Y-13068198D02*
X11473015Y-13077722D01*
X11473015Y-13077722D02*
X11463491Y-13087246D01*
X11463491Y-13087246D02*
X11453967Y-13106293D01*
X11453967Y-13106293D02*
X11453967Y-13144388D01*
X11453967Y-13144388D02*
X11463491Y-13163436D01*
X11463491Y-13163436D02*
X11473015Y-13172960D01*
X11473015Y-13172960D02*
X11492062Y-13182484D01*
X11492062Y-13182484D02*
X11530158Y-13182484D01*
X11530158Y-13182484D02*
X11549205Y-13172960D01*
X11549205Y-13172960D02*
X11558729Y-13163436D01*
X11558729Y-13163436D02*
X11568253Y-13144388D01*
X11568253Y-13144388D02*
X11568253Y-13106293D01*
X11568253Y-13106293D02*
X11558729Y-13087246D01*
X11558729Y-13087246D02*
X11549205Y-13077722D01*
X11549205Y-13077722D02*
X11530158Y-13068198D01*
X11749205Y-12982484D02*
X11653967Y-12982484D01*
X11653967Y-12982484D02*
X11644443Y-13077722D01*
X11644443Y-13077722D02*
X11653967Y-13068198D01*
X11653967Y-13068198D02*
X11673015Y-13058674D01*
X11673015Y-13058674D02*
X11720634Y-13058674D01*
X11720634Y-13058674D02*
X11739682Y-13068198D01*
X11739682Y-13068198D02*
X11749205Y-13077722D01*
X11749205Y-13077722D02*
X11758729Y-13096769D01*
X11758729Y-13096769D02*
X11758729Y-13144388D01*
X11758729Y-13144388D02*
X11749205Y-13163436D01*
X11749205Y-13163436D02*
X11739682Y-13172960D01*
X11739682Y-13172960D02*
X11720634Y-13182484D01*
X11720634Y-13182484D02*
X11673015Y-13182484D01*
X11673015Y-13182484D02*
X11653967Y-13172960D01*
X11653967Y-13172960D02*
X11644443Y-13163436D01*
X11882539Y-12982484D02*
X11901586Y-12982484D01*
X11901586Y-12982484D02*
X11920634Y-12992008D01*
X11920634Y-12992008D02*
X11930158Y-13001531D01*
X11930158Y-13001531D02*
X11939682Y-13020579D01*
X11939682Y-13020579D02*
X11949205Y-13058674D01*
X11949205Y-13058674D02*
X11949205Y-13106293D01*
X11949205Y-13106293D02*
X11939682Y-13144388D01*
X11939682Y-13144388D02*
X11930158Y-13163436D01*
X11930158Y-13163436D02*
X11920634Y-13172960D01*
X11920634Y-13172960D02*
X11901586Y-13182484D01*
X11901586Y-13182484D02*
X11882539Y-13182484D01*
X11882539Y-13182484D02*
X11863491Y-13172960D01*
X11863491Y-13172960D02*
X11853967Y-13163436D01*
X11853967Y-13163436D02*
X11844443Y-13144388D01*
X11844443Y-13144388D02*
X11834920Y-13106293D01*
X11834920Y-13106293D02*
X11834920Y-13058674D01*
X11834920Y-13058674D02*
X11844443Y-13020579D01*
X11844443Y-13020579D02*
X11853967Y-13001531D01*
X11853967Y-13001531D02*
X11863491Y-12992008D01*
X11863491Y-12992008D02*
X11882539Y-12982484D01*
X12034920Y-13182484D02*
X12034920Y-13049150D01*
X12034920Y-13068198D02*
X12044443Y-13058674D01*
X12044443Y-13058674D02*
X12063491Y-13049150D01*
X12063491Y-13049150D02*
X12092063Y-13049150D01*
X12092063Y-13049150D02*
X12111110Y-13058674D01*
X12111110Y-13058674D02*
X12120634Y-13077722D01*
X12120634Y-13077722D02*
X12120634Y-13182484D01*
X12120634Y-13077722D02*
X12130158Y-13058674D01*
X12130158Y-13058674D02*
X12149205Y-13049150D01*
X12149205Y-13049150D02*
X12177777Y-13049150D01*
X12177777Y-13049150D02*
X12196824Y-13058674D01*
X12196824Y-13058674D02*
X12206348Y-13077722D01*
X12206348Y-13077722D02*
X12206348Y-13182484D01*
X12301586Y-13182484D02*
X12301586Y-13049150D01*
X12301586Y-13068198D02*
X12311110Y-13058674D01*
X12311110Y-13058674D02*
X12330158Y-13049150D01*
X12330158Y-13049150D02*
X12358729Y-13049150D01*
X12358729Y-13049150D02*
X12377777Y-13058674D01*
X12377777Y-13058674D02*
X12387301Y-13077722D01*
X12387301Y-13077722D02*
X12387301Y-13182484D01*
X12387301Y-13077722D02*
X12396824Y-13058674D01*
X12396824Y-13058674D02*
X12415872Y-13049150D01*
X12415872Y-13049150D02*
X12444443Y-13049150D01*
X12444443Y-13049150D02*
X12463491Y-13058674D01*
X12463491Y-13058674D02*
X12473015Y-13077722D01*
X12473015Y-13077722D02*
X12473015Y-13182484D01*
X12863491Y-12972960D02*
X12692063Y-13230103D01*
X13120634Y-12982484D02*
X13139682Y-12982484D01*
X13139682Y-12982484D02*
X13158729Y-12992008D01*
X13158729Y-12992008D02*
X13168253Y-13001531D01*
X13168253Y-13001531D02*
X13177777Y-13020579D01*
X13177777Y-13020579D02*
X13187301Y-13058674D01*
X13187301Y-13058674D02*
X13187301Y-13106293D01*
X13187301Y-13106293D02*
X13177777Y-13144388D01*
X13177777Y-13144388D02*
X13168253Y-13163436D01*
X13168253Y-13163436D02*
X13158729Y-13172960D01*
X13158729Y-13172960D02*
X13139682Y-13182484D01*
X13139682Y-13182484D02*
X13120634Y-13182484D01*
X13120634Y-13182484D02*
X13101586Y-13172960D01*
X13101586Y-13172960D02*
X13092063Y-13163436D01*
X13092063Y-13163436D02*
X13082539Y-13144388D01*
X13082539Y-13144388D02*
X13073015Y-13106293D01*
X13073015Y-13106293D02*
X13073015Y-13058674D01*
X13073015Y-13058674D02*
X13082539Y-13020579D01*
X13082539Y-13020579D02*
X13092063Y-13001531D01*
X13092063Y-13001531D02*
X13101586Y-12992008D01*
X13101586Y-12992008D02*
X13120634Y-12982484D01*
X13273015Y-13163436D02*
X13282539Y-13172960D01*
X13282539Y-13172960D02*
X13273015Y-13182484D01*
X13273015Y-13182484D02*
X13263491Y-13172960D01*
X13263491Y-13172960D02*
X13273015Y-13163436D01*
X13273015Y-13163436D02*
X13273015Y-13182484D01*
X13406348Y-12982484D02*
X13425396Y-12982484D01*
X13425396Y-12982484D02*
X13444444Y-12992008D01*
X13444444Y-12992008D02*
X13453967Y-13001531D01*
X13453967Y-13001531D02*
X13463491Y-13020579D01*
X13463491Y-13020579D02*
X13473015Y-13058674D01*
X13473015Y-13058674D02*
X13473015Y-13106293D01*
X13473015Y-13106293D02*
X13463491Y-13144388D01*
X13463491Y-13144388D02*
X13453967Y-13163436D01*
X13453967Y-13163436D02*
X13444444Y-13172960D01*
X13444444Y-13172960D02*
X13425396Y-13182484D01*
X13425396Y-13182484D02*
X13406348Y-13182484D01*
X13406348Y-13182484D02*
X13387301Y-13172960D01*
X13387301Y-13172960D02*
X13377777Y-13163436D01*
X13377777Y-13163436D02*
X13368253Y-13144388D01*
X13368253Y-13144388D02*
X13358729Y-13106293D01*
X13358729Y-13106293D02*
X13358729Y-13058674D01*
X13358729Y-13058674D02*
X13368253Y-13020579D01*
X13368253Y-13020579D02*
X13377777Y-13001531D01*
X13377777Y-13001531D02*
X13387301Y-12992008D01*
X13387301Y-12992008D02*
X13406348Y-12982484D01*
X13539682Y-12982484D02*
X13663491Y-12982484D01*
X13663491Y-12982484D02*
X13596825Y-13058674D01*
X13596825Y-13058674D02*
X13625396Y-13058674D01*
X13625396Y-13058674D02*
X13644444Y-13068198D01*
X13644444Y-13068198D02*
X13653967Y-13077722D01*
X13653967Y-13077722D02*
X13663491Y-13096769D01*
X13663491Y-13096769D02*
X13663491Y-13144388D01*
X13663491Y-13144388D02*
X13653967Y-13163436D01*
X13653967Y-13163436D02*
X13644444Y-13172960D01*
X13644444Y-13172960D02*
X13625396Y-13182484D01*
X13625396Y-13182484D02*
X13568253Y-13182484D01*
X13568253Y-13182484D02*
X13549206Y-13172960D01*
X13549206Y-13172960D02*
X13539682Y-13163436D01*
X13730158Y-12982484D02*
X13853967Y-12982484D01*
X13853967Y-12982484D02*
X13787301Y-13058674D01*
X13787301Y-13058674D02*
X13815872Y-13058674D01*
X13815872Y-13058674D02*
X13834920Y-13068198D01*
X13834920Y-13068198D02*
X13844444Y-13077722D01*
X13844444Y-13077722D02*
X13853967Y-13096769D01*
X13853967Y-13096769D02*
X13853967Y-13144388D01*
X13853967Y-13144388D02*
X13844444Y-13163436D01*
X13844444Y-13163436D02*
X13834920Y-13172960D01*
X13834920Y-13172960D02*
X13815872Y-13182484D01*
X13815872Y-13182484D02*
X13758729Y-13182484D01*
X13758729Y-13182484D02*
X13739682Y-13172960D01*
X13739682Y-13172960D02*
X13730158Y-13163436D01*
X14034920Y-12982484D02*
X13939682Y-12982484D01*
X13939682Y-12982484D02*
X13930158Y-13077722D01*
X13930158Y-13077722D02*
X13939682Y-13068198D01*
X13939682Y-13068198D02*
X13958729Y-13058674D01*
X13958729Y-13058674D02*
X14006348Y-13058674D01*
X14006348Y-13058674D02*
X14025396Y-13068198D01*
X14025396Y-13068198D02*
X14034920Y-13077722D01*
X14034920Y-13077722D02*
X14044444Y-13096769D01*
X14044444Y-13096769D02*
X14044444Y-13144388D01*
X14044444Y-13144388D02*
X14034920Y-13163436D01*
X14034920Y-13163436D02*
X14025396Y-13172960D01*
X14025396Y-13172960D02*
X14006348Y-13182484D01*
X14006348Y-13182484D02*
X13958729Y-13182484D01*
X13958729Y-13182484D02*
X13939682Y-13172960D01*
X13939682Y-13172960D02*
X13930158Y-13163436D01*
X14120634Y-12982484D02*
X14120634Y-13020579D01*
X14196825Y-12982484D02*
X14196825Y-13020579D01*
X14492063Y-13258674D02*
X14482539Y-13249150D01*
X14482539Y-13249150D02*
X14463491Y-13220579D01*
X14463491Y-13220579D02*
X14453968Y-13201531D01*
X14453968Y-13201531D02*
X14444444Y-13172960D01*
X14444444Y-13172960D02*
X14434920Y-13125341D01*
X14434920Y-13125341D02*
X14434920Y-13087246D01*
X14434920Y-13087246D02*
X14444444Y-13039627D01*
X14444444Y-13039627D02*
X14453968Y-13011055D01*
X14453968Y-13011055D02*
X14463491Y-12992008D01*
X14463491Y-12992008D02*
X14482539Y-12963436D01*
X14482539Y-12963436D02*
X14492063Y-12953912D01*
X14549206Y-12982484D02*
X14673015Y-12982484D01*
X14673015Y-12982484D02*
X14606348Y-13058674D01*
X14606348Y-13058674D02*
X14634920Y-13058674D01*
X14634920Y-13058674D02*
X14653968Y-13068198D01*
X14653968Y-13068198D02*
X14663491Y-13077722D01*
X14663491Y-13077722D02*
X14673015Y-13096769D01*
X14673015Y-13096769D02*
X14673015Y-13144388D01*
X14673015Y-13144388D02*
X14663491Y-13163436D01*
X14663491Y-13163436D02*
X14653968Y-13172960D01*
X14653968Y-13172960D02*
X14634920Y-13182484D01*
X14634920Y-13182484D02*
X14577777Y-13182484D01*
X14577777Y-13182484D02*
X14558729Y-13172960D01*
X14558729Y-13172960D02*
X14549206Y-13163436D01*
X14911110Y-13182484D02*
X14911110Y-12982484D01*
X14996825Y-13182484D02*
X14996825Y-13077722D01*
X14996825Y-13077722D02*
X14987301Y-13058674D01*
X14987301Y-13058674D02*
X14968253Y-13049150D01*
X14968253Y-13049150D02*
X14939682Y-13049150D01*
X14939682Y-13049150D02*
X14920634Y-13058674D01*
X14920634Y-13058674D02*
X14911110Y-13068198D01*
X15120634Y-13182484D02*
X15101587Y-13172960D01*
X15101587Y-13172960D02*
X15092063Y-13163436D01*
X15092063Y-13163436D02*
X15082539Y-13144388D01*
X15082539Y-13144388D02*
X15082539Y-13087246D01*
X15082539Y-13087246D02*
X15092063Y-13068198D01*
X15092063Y-13068198D02*
X15101587Y-13058674D01*
X15101587Y-13058674D02*
X15120634Y-13049150D01*
X15120634Y-13049150D02*
X15149206Y-13049150D01*
X15149206Y-13049150D02*
X15168253Y-13058674D01*
X15168253Y-13058674D02*
X15177777Y-13068198D01*
X15177777Y-13068198D02*
X15187301Y-13087246D01*
X15187301Y-13087246D02*
X15187301Y-13144388D01*
X15187301Y-13144388D02*
X15177777Y-13163436D01*
X15177777Y-13163436D02*
X15168253Y-13172960D01*
X15168253Y-13172960D02*
X15149206Y-13182484D01*
X15149206Y-13182484D02*
X15120634Y-13182484D01*
X15301587Y-13182484D02*
X15282539Y-13172960D01*
X15282539Y-13172960D02*
X15273015Y-13153912D01*
X15273015Y-13153912D02*
X15273015Y-12982484D01*
X15453968Y-13172960D02*
X15434920Y-13182484D01*
X15434920Y-13182484D02*
X15396825Y-13182484D01*
X15396825Y-13182484D02*
X15377777Y-13172960D01*
X15377777Y-13172960D02*
X15368253Y-13153912D01*
X15368253Y-13153912D02*
X15368253Y-13077722D01*
X15368253Y-13077722D02*
X15377777Y-13058674D01*
X15377777Y-13058674D02*
X15396825Y-13049150D01*
X15396825Y-13049150D02*
X15434920Y-13049150D01*
X15434920Y-13049150D02*
X15453968Y-13058674D01*
X15453968Y-13058674D02*
X15463491Y-13077722D01*
X15463491Y-13077722D02*
X15463491Y-13096769D01*
X15463491Y-13096769D02*
X15368253Y-13115817D01*
X15539682Y-13172960D02*
X15558730Y-13182484D01*
X15558730Y-13182484D02*
X15596825Y-13182484D01*
X15596825Y-13182484D02*
X15615872Y-13172960D01*
X15615872Y-13172960D02*
X15625396Y-13153912D01*
X15625396Y-13153912D02*
X15625396Y-13144388D01*
X15625396Y-13144388D02*
X15615872Y-13125341D01*
X15615872Y-13125341D02*
X15596825Y-13115817D01*
X15596825Y-13115817D02*
X15568253Y-13115817D01*
X15568253Y-13115817D02*
X15549206Y-13106293D01*
X15549206Y-13106293D02*
X15539682Y-13087246D01*
X15539682Y-13087246D02*
X15539682Y-13077722D01*
X15539682Y-13077722D02*
X15549206Y-13058674D01*
X15549206Y-13058674D02*
X15568253Y-13049150D01*
X15568253Y-13049150D02*
X15596825Y-13049150D01*
X15596825Y-13049150D02*
X15615872Y-13058674D01*
X15692063Y-13258674D02*
X15701587Y-13249150D01*
X15701587Y-13249150D02*
X15720634Y-13220579D01*
X15720634Y-13220579D02*
X15730158Y-13201531D01*
X15730158Y-13201531D02*
X15739682Y-13172960D01*
X15739682Y-13172960D02*
X15749206Y-13125341D01*
X15749206Y-13125341D02*
X15749206Y-13087246D01*
X15749206Y-13087246D02*
X15739682Y-13039627D01*
X15739682Y-13039627D02*
X15730158Y-13011055D01*
X15730158Y-13011055D02*
X15720634Y-12992008D01*
X15720634Y-12992008D02*
X15701587Y-12963436D01*
X15701587Y-12963436D02*
X15692063Y-12953912D01*
D10*
X10917000Y-13355000D02*
G75*
G03*
X10917000Y-13355000I-50000J0D01*
G01*
D11*
X11282539Y-13446484D02*
X11168253Y-13446484D01*
X11225396Y-13446484D02*
X11225396Y-13246484D01*
X11225396Y-13246484D02*
X11206348Y-13275055D01*
X11206348Y-13275055D02*
X11187301Y-13294103D01*
X11187301Y-13294103D02*
X11168253Y-13303627D01*
X11368253Y-13427436D02*
X11377777Y-13436960D01*
X11377777Y-13436960D02*
X11368253Y-13446484D01*
X11368253Y-13446484D02*
X11358729Y-13436960D01*
X11358729Y-13436960D02*
X11368253Y-13427436D01*
X11368253Y-13427436D02*
X11368253Y-13446484D01*
X11501586Y-13246484D02*
X11520634Y-13246484D01*
X11520634Y-13246484D02*
X11539682Y-13256008D01*
X11539682Y-13256008D02*
X11549205Y-13265531D01*
X11549205Y-13265531D02*
X11558729Y-13284579D01*
X11558729Y-13284579D02*
X11568253Y-13322674D01*
X11568253Y-13322674D02*
X11568253Y-13370293D01*
X11568253Y-13370293D02*
X11558729Y-13408388D01*
X11558729Y-13408388D02*
X11549205Y-13427436D01*
X11549205Y-13427436D02*
X11539682Y-13436960D01*
X11539682Y-13436960D02*
X11520634Y-13446484D01*
X11520634Y-13446484D02*
X11501586Y-13446484D01*
X11501586Y-13446484D02*
X11482539Y-13436960D01*
X11482539Y-13436960D02*
X11473015Y-13427436D01*
X11473015Y-13427436D02*
X11463491Y-13408388D01*
X11463491Y-13408388D02*
X11453967Y-13370293D01*
X11453967Y-13370293D02*
X11453967Y-13322674D01*
X11453967Y-13322674D02*
X11463491Y-13284579D01*
X11463491Y-13284579D02*
X11473015Y-13265531D01*
X11473015Y-13265531D02*
X11482539Y-13256008D01*
X11482539Y-13256008D02*
X11501586Y-13246484D01*
X11692062Y-13246484D02*
X11711110Y-13246484D01*
X11711110Y-13246484D02*
X11730158Y-13256008D01*
X11730158Y-13256008D02*
X11739682Y-13265531D01*
X11739682Y-13265531D02*
X11749205Y-13284579D01*
X11749205Y-13284579D02*
X11758729Y-13322674D01*
X11758729Y-13322674D02*
X11758729Y-13370293D01*
X11758729Y-13370293D02*
X11749205Y-13408388D01*
X11749205Y-13408388D02*
X11739682Y-13427436D01*
X11739682Y-13427436D02*
X11730158Y-13436960D01*
X11730158Y-13436960D02*
X11711110Y-13446484D01*
X11711110Y-13446484D02*
X11692062Y-13446484D01*
X11692062Y-13446484D02*
X11673015Y-13436960D01*
X11673015Y-13436960D02*
X11663491Y-13427436D01*
X11663491Y-13427436D02*
X11653967Y-13408388D01*
X11653967Y-13408388D02*
X11644443Y-13370293D01*
X11644443Y-13370293D02*
X11644443Y-13322674D01*
X11644443Y-13322674D02*
X11653967Y-13284579D01*
X11653967Y-13284579D02*
X11663491Y-13265531D01*
X11663491Y-13265531D02*
X11673015Y-13256008D01*
X11673015Y-13256008D02*
X11692062Y-13246484D01*
X11882539Y-13246484D02*
X11901586Y-13246484D01*
X11901586Y-13246484D02*
X11920634Y-13256008D01*
X11920634Y-13256008D02*
X11930158Y-13265531D01*
X11930158Y-13265531D02*
X11939682Y-13284579D01*
X11939682Y-13284579D02*
X11949205Y-13322674D01*
X11949205Y-13322674D02*
X11949205Y-13370293D01*
X11949205Y-13370293D02*
X11939682Y-13408388D01*
X11939682Y-13408388D02*
X11930158Y-13427436D01*
X11930158Y-13427436D02*
X11920634Y-13436960D01*
X11920634Y-13436960D02*
X11901586Y-13446484D01*
X11901586Y-13446484D02*
X11882539Y-13446484D01*
X11882539Y-13446484D02*
X11863491Y-13436960D01*
X11863491Y-13436960D02*
X11853967Y-13427436D01*
X11853967Y-13427436D02*
X11844443Y-13408388D01*
X11844443Y-13408388D02*
X11834920Y-13370293D01*
X11834920Y-13370293D02*
X11834920Y-13322674D01*
X11834920Y-13322674D02*
X11844443Y-13284579D01*
X11844443Y-13284579D02*
X11853967Y-13265531D01*
X11853967Y-13265531D02*
X11863491Y-13256008D01*
X11863491Y-13256008D02*
X11882539Y-13246484D01*
X12034920Y-13446484D02*
X12034920Y-13313150D01*
X12034920Y-13332198D02*
X12044443Y-13322674D01*
X12044443Y-13322674D02*
X12063491Y-13313150D01*
X12063491Y-13313150D02*
X12092063Y-13313150D01*
X12092063Y-13313150D02*
X12111110Y-13322674D01*
X12111110Y-13322674D02*
X12120634Y-13341722D01*
X12120634Y-13341722D02*
X12120634Y-13446484D01*
X12120634Y-13341722D02*
X12130158Y-13322674D01*
X12130158Y-13322674D02*
X12149205Y-13313150D01*
X12149205Y-13313150D02*
X12177777Y-13313150D01*
X12177777Y-13313150D02*
X12196824Y-13322674D01*
X12196824Y-13322674D02*
X12206348Y-13341722D01*
X12206348Y-13341722D02*
X12206348Y-13446484D01*
X12301586Y-13446484D02*
X12301586Y-13313150D01*
X12301586Y-13332198D02*
X12311110Y-13322674D01*
X12311110Y-13322674D02*
X12330158Y-13313150D01*
X12330158Y-13313150D02*
X12358729Y-13313150D01*
X12358729Y-13313150D02*
X12377777Y-13322674D01*
X12377777Y-13322674D02*
X12387301Y-13341722D01*
X12387301Y-13341722D02*
X12387301Y-13446484D01*
X12387301Y-13341722D02*
X12396824Y-13322674D01*
X12396824Y-13322674D02*
X12415872Y-13313150D01*
X12415872Y-13313150D02*
X12444443Y-13313150D01*
X12444443Y-13313150D02*
X12463491Y-13322674D01*
X12463491Y-13322674D02*
X12473015Y-13341722D01*
X12473015Y-13341722D02*
X12473015Y-13446484D01*
X12863491Y-13236960D02*
X12692063Y-13494103D01*
X13120634Y-13246484D02*
X13139682Y-13246484D01*
X13139682Y-13246484D02*
X13158729Y-13256008D01*
X13158729Y-13256008D02*
X13168253Y-13265531D01*
X13168253Y-13265531D02*
X13177777Y-13284579D01*
X13177777Y-13284579D02*
X13187301Y-13322674D01*
X13187301Y-13322674D02*
X13187301Y-13370293D01*
X13187301Y-13370293D02*
X13177777Y-13408388D01*
X13177777Y-13408388D02*
X13168253Y-13427436D01*
X13168253Y-13427436D02*
X13158729Y-13436960D01*
X13158729Y-13436960D02*
X13139682Y-13446484D01*
X13139682Y-13446484D02*
X13120634Y-13446484D01*
X13120634Y-13446484D02*
X13101586Y-13436960D01*
X13101586Y-13436960D02*
X13092063Y-13427436D01*
X13092063Y-13427436D02*
X13082539Y-13408388D01*
X13082539Y-13408388D02*
X13073015Y-13370293D01*
X13073015Y-13370293D02*
X13073015Y-13322674D01*
X13073015Y-13322674D02*
X13082539Y-13284579D01*
X13082539Y-13284579D02*
X13092063Y-13265531D01*
X13092063Y-13265531D02*
X13101586Y-13256008D01*
X13101586Y-13256008D02*
X13120634Y-13246484D01*
X13273015Y-13427436D02*
X13282539Y-13436960D01*
X13282539Y-13436960D02*
X13273015Y-13446484D01*
X13273015Y-13446484D02*
X13263491Y-13436960D01*
X13263491Y-13436960D02*
X13273015Y-13427436D01*
X13273015Y-13427436D02*
X13273015Y-13446484D01*
X13406348Y-13246484D02*
X13425396Y-13246484D01*
X13425396Y-13246484D02*
X13444444Y-13256008D01*
X13444444Y-13256008D02*
X13453967Y-13265531D01*
X13453967Y-13265531D02*
X13463491Y-13284579D01*
X13463491Y-13284579D02*
X13473015Y-13322674D01*
X13473015Y-13322674D02*
X13473015Y-13370293D01*
X13473015Y-13370293D02*
X13463491Y-13408388D01*
X13463491Y-13408388D02*
X13453967Y-13427436D01*
X13453967Y-13427436D02*
X13444444Y-13436960D01*
X13444444Y-13436960D02*
X13425396Y-13446484D01*
X13425396Y-13446484D02*
X13406348Y-13446484D01*
X13406348Y-13446484D02*
X13387301Y-13436960D01*
X13387301Y-13436960D02*
X13377777Y-13427436D01*
X13377777Y-13427436D02*
X13368253Y-13408388D01*
X13368253Y-13408388D02*
X13358729Y-13370293D01*
X13358729Y-13370293D02*
X13358729Y-13322674D01*
X13358729Y-13322674D02*
X13368253Y-13284579D01*
X13368253Y-13284579D02*
X13377777Y-13265531D01*
X13377777Y-13265531D02*
X13387301Y-13256008D01*
X13387301Y-13256008D02*
X13406348Y-13246484D01*
X13539682Y-13246484D02*
X13663491Y-13246484D01*
X13663491Y-13246484D02*
X13596825Y-13322674D01*
X13596825Y-13322674D02*
X13625396Y-13322674D01*
X13625396Y-13322674D02*
X13644444Y-13332198D01*
X13644444Y-13332198D02*
X13653967Y-13341722D01*
X13653967Y-13341722D02*
X13663491Y-13360769D01*
X13663491Y-13360769D02*
X13663491Y-13408388D01*
X13663491Y-13408388D02*
X13653967Y-13427436D01*
X13653967Y-13427436D02*
X13644444Y-13436960D01*
X13644444Y-13436960D02*
X13625396Y-13446484D01*
X13625396Y-13446484D02*
X13568253Y-13446484D01*
X13568253Y-13446484D02*
X13549206Y-13436960D01*
X13549206Y-13436960D02*
X13539682Y-13427436D01*
X13758729Y-13446484D02*
X13796825Y-13446484D01*
X13796825Y-13446484D02*
X13815872Y-13436960D01*
X13815872Y-13436960D02*
X13825396Y-13427436D01*
X13825396Y-13427436D02*
X13844444Y-13398865D01*
X13844444Y-13398865D02*
X13853967Y-13360769D01*
X13853967Y-13360769D02*
X13853967Y-13284579D01*
X13853967Y-13284579D02*
X13844444Y-13265531D01*
X13844444Y-13265531D02*
X13834920Y-13256008D01*
X13834920Y-13256008D02*
X13815872Y-13246484D01*
X13815872Y-13246484D02*
X13777777Y-13246484D01*
X13777777Y-13246484D02*
X13758729Y-13256008D01*
X13758729Y-13256008D02*
X13749206Y-13265531D01*
X13749206Y-13265531D02*
X13739682Y-13284579D01*
X13739682Y-13284579D02*
X13739682Y-13332198D01*
X13739682Y-13332198D02*
X13749206Y-13351246D01*
X13749206Y-13351246D02*
X13758729Y-13360769D01*
X13758729Y-13360769D02*
X13777777Y-13370293D01*
X13777777Y-13370293D02*
X13815872Y-13370293D01*
X13815872Y-13370293D02*
X13834920Y-13360769D01*
X13834920Y-13360769D02*
X13844444Y-13351246D01*
X13844444Y-13351246D02*
X13853967Y-13332198D01*
X14025396Y-13313150D02*
X14025396Y-13446484D01*
X13977777Y-13236960D02*
X13930158Y-13379817D01*
X13930158Y-13379817D02*
X14053967Y-13379817D01*
X14120634Y-13246484D02*
X14120634Y-13284579D01*
X14196825Y-13246484D02*
X14196825Y-13284579D01*
X14492063Y-13522674D02*
X14482539Y-13513150D01*
X14482539Y-13513150D02*
X14463491Y-13484579D01*
X14463491Y-13484579D02*
X14453968Y-13465531D01*
X14453968Y-13465531D02*
X14444444Y-13436960D01*
X14444444Y-13436960D02*
X14434920Y-13389341D01*
X14434920Y-13389341D02*
X14434920Y-13351246D01*
X14434920Y-13351246D02*
X14444444Y-13303627D01*
X14444444Y-13303627D02*
X14453968Y-13275055D01*
X14453968Y-13275055D02*
X14463491Y-13256008D01*
X14463491Y-13256008D02*
X14482539Y-13227436D01*
X14482539Y-13227436D02*
X14492063Y-13217912D01*
X14653968Y-13313150D02*
X14653968Y-13446484D01*
X14606348Y-13236960D02*
X14558729Y-13379817D01*
X14558729Y-13379817D02*
X14682539Y-13379817D01*
X14739682Y-13246484D02*
X14863491Y-13246484D01*
X14863491Y-13246484D02*
X14796825Y-13322674D01*
X14796825Y-13322674D02*
X14825396Y-13322674D01*
X14825396Y-13322674D02*
X14844444Y-13332198D01*
X14844444Y-13332198D02*
X14853968Y-13341722D01*
X14853968Y-13341722D02*
X14863491Y-13360769D01*
X14863491Y-13360769D02*
X14863491Y-13408388D01*
X14863491Y-13408388D02*
X14853968Y-13427436D01*
X14853968Y-13427436D02*
X14844444Y-13436960D01*
X14844444Y-13436960D02*
X14825396Y-13446484D01*
X14825396Y-13446484D02*
X14768253Y-13446484D01*
X14768253Y-13446484D02*
X14749206Y-13436960D01*
X14749206Y-13436960D02*
X14739682Y-13427436D01*
X15101587Y-13446484D02*
X15101587Y-13246484D01*
X15187301Y-13446484D02*
X15187301Y-13341722D01*
X15187301Y-13341722D02*
X15177777Y-13322674D01*
X15177777Y-13322674D02*
X15158730Y-13313150D01*
X15158730Y-13313150D02*
X15130158Y-13313150D01*
X15130158Y-13313150D02*
X15111110Y-13322674D01*
X15111110Y-13322674D02*
X15101587Y-13332198D01*
X15311110Y-13446484D02*
X15292063Y-13436960D01*
X15292063Y-13436960D02*
X15282539Y-13427436D01*
X15282539Y-13427436D02*
X15273015Y-13408388D01*
X15273015Y-13408388D02*
X15273015Y-13351246D01*
X15273015Y-13351246D02*
X15282539Y-13332198D01*
X15282539Y-13332198D02*
X15292063Y-13322674D01*
X15292063Y-13322674D02*
X15311110Y-13313150D01*
X15311110Y-13313150D02*
X15339682Y-13313150D01*
X15339682Y-13313150D02*
X15358730Y-13322674D01*
X15358730Y-13322674D02*
X15368253Y-13332198D01*
X15368253Y-13332198D02*
X15377777Y-13351246D01*
X15377777Y-13351246D02*
X15377777Y-13408388D01*
X15377777Y-13408388D02*
X15368253Y-13427436D01*
X15368253Y-13427436D02*
X15358730Y-13436960D01*
X15358730Y-13436960D02*
X15339682Y-13446484D01*
X15339682Y-13446484D02*
X15311110Y-13446484D01*
X15492063Y-13446484D02*
X15473015Y-13436960D01*
X15473015Y-13436960D02*
X15463491Y-13417912D01*
X15463491Y-13417912D02*
X15463491Y-13246484D01*
X15644444Y-13436960D02*
X15625396Y-13446484D01*
X15625396Y-13446484D02*
X15587301Y-13446484D01*
X15587301Y-13446484D02*
X15568253Y-13436960D01*
X15568253Y-13436960D02*
X15558730Y-13417912D01*
X15558730Y-13417912D02*
X15558730Y-13341722D01*
X15558730Y-13341722D02*
X15568253Y-13322674D01*
X15568253Y-13322674D02*
X15587301Y-13313150D01*
X15587301Y-13313150D02*
X15625396Y-13313150D01*
X15625396Y-13313150D02*
X15644444Y-13322674D01*
X15644444Y-13322674D02*
X15653968Y-13341722D01*
X15653968Y-13341722D02*
X15653968Y-13360769D01*
X15653968Y-13360769D02*
X15558730Y-13379817D01*
X15730158Y-13436960D02*
X15749206Y-13446484D01*
X15749206Y-13446484D02*
X15787301Y-13446484D01*
X15787301Y-13446484D02*
X15806349Y-13436960D01*
X15806349Y-13436960D02*
X15815872Y-13417912D01*
X15815872Y-13417912D02*
X15815872Y-13408388D01*
X15815872Y-13408388D02*
X15806349Y-13389341D01*
X15806349Y-13389341D02*
X15787301Y-13379817D01*
X15787301Y-13379817D02*
X15758730Y-13379817D01*
X15758730Y-13379817D02*
X15739682Y-13370293D01*
X15739682Y-13370293D02*
X15730158Y-13351246D01*
X15730158Y-13351246D02*
X15730158Y-13341722D01*
X15730158Y-13341722D02*
X15739682Y-13322674D01*
X15739682Y-13322674D02*
X15758730Y-13313150D01*
X15758730Y-13313150D02*
X15787301Y-13313150D01*
X15787301Y-13313150D02*
X15806349Y-13322674D01*
X15882539Y-13522674D02*
X15892063Y-13513150D01*
X15892063Y-13513150D02*
X15911111Y-13484579D01*
X15911111Y-13484579D02*
X15920634Y-13465531D01*
X15920634Y-13465531D02*
X15930158Y-13436960D01*
X15930158Y-13436960D02*
X15939682Y-13389341D01*
X15939682Y-13389341D02*
X15939682Y-13351246D01*
X15939682Y-13351246D02*
X15930158Y-13303627D01*
X15930158Y-13303627D02*
X15920634Y-13275055D01*
X15920634Y-13275055D02*
X15911111Y-13256008D01*
X15911111Y-13256008D02*
X15892063Y-13227436D01*
X15892063Y-13227436D02*
X15882539Y-13217912D01*
D12*
X10862000Y-13564000D02*
X10862000Y-13674000D01*
X10807000Y-13619000D02*
X10917000Y-13619000D01*
D11*
X11282539Y-13710484D02*
X11168253Y-13710484D01*
X11225396Y-13710484D02*
X11225396Y-13510484D01*
X11225396Y-13510484D02*
X11206348Y-13539055D01*
X11206348Y-13539055D02*
X11187301Y-13558103D01*
X11187301Y-13558103D02*
X11168253Y-13567627D01*
X11368253Y-13691436D02*
X11377777Y-13700960D01*
X11377777Y-13700960D02*
X11368253Y-13710484D01*
X11368253Y-13710484D02*
X11358729Y-13700960D01*
X11358729Y-13700960D02*
X11368253Y-13691436D01*
X11368253Y-13691436D02*
X11368253Y-13710484D01*
X11568253Y-13710484D02*
X11453967Y-13710484D01*
X11511110Y-13710484D02*
X11511110Y-13510484D01*
X11511110Y-13510484D02*
X11492062Y-13539055D01*
X11492062Y-13539055D02*
X11473015Y-13558103D01*
X11473015Y-13558103D02*
X11453967Y-13567627D01*
X11692062Y-13510484D02*
X11711110Y-13510484D01*
X11711110Y-13510484D02*
X11730158Y-13520008D01*
X11730158Y-13520008D02*
X11739682Y-13529531D01*
X11739682Y-13529531D02*
X11749205Y-13548579D01*
X11749205Y-13548579D02*
X11758729Y-13586674D01*
X11758729Y-13586674D02*
X11758729Y-13634293D01*
X11758729Y-13634293D02*
X11749205Y-13672388D01*
X11749205Y-13672388D02*
X11739682Y-13691436D01*
X11739682Y-13691436D02*
X11730158Y-13700960D01*
X11730158Y-13700960D02*
X11711110Y-13710484D01*
X11711110Y-13710484D02*
X11692062Y-13710484D01*
X11692062Y-13710484D02*
X11673015Y-13700960D01*
X11673015Y-13700960D02*
X11663491Y-13691436D01*
X11663491Y-13691436D02*
X11653967Y-13672388D01*
X11653967Y-13672388D02*
X11644443Y-13634293D01*
X11644443Y-13634293D02*
X11644443Y-13586674D01*
X11644443Y-13586674D02*
X11653967Y-13548579D01*
X11653967Y-13548579D02*
X11663491Y-13529531D01*
X11663491Y-13529531D02*
X11673015Y-13520008D01*
X11673015Y-13520008D02*
X11692062Y-13510484D01*
X11882539Y-13510484D02*
X11901586Y-13510484D01*
X11901586Y-13510484D02*
X11920634Y-13520008D01*
X11920634Y-13520008D02*
X11930158Y-13529531D01*
X11930158Y-13529531D02*
X11939682Y-13548579D01*
X11939682Y-13548579D02*
X11949205Y-13586674D01*
X11949205Y-13586674D02*
X11949205Y-13634293D01*
X11949205Y-13634293D02*
X11939682Y-13672388D01*
X11939682Y-13672388D02*
X11930158Y-13691436D01*
X11930158Y-13691436D02*
X11920634Y-13700960D01*
X11920634Y-13700960D02*
X11901586Y-13710484D01*
X11901586Y-13710484D02*
X11882539Y-13710484D01*
X11882539Y-13710484D02*
X11863491Y-13700960D01*
X11863491Y-13700960D02*
X11853967Y-13691436D01*
X11853967Y-13691436D02*
X11844443Y-13672388D01*
X11844443Y-13672388D02*
X11834920Y-13634293D01*
X11834920Y-13634293D02*
X11834920Y-13586674D01*
X11834920Y-13586674D02*
X11844443Y-13548579D01*
X11844443Y-13548579D02*
X11853967Y-13529531D01*
X11853967Y-13529531D02*
X11863491Y-13520008D01*
X11863491Y-13520008D02*
X11882539Y-13510484D01*
X12034920Y-13710484D02*
X12034920Y-13577150D01*
X12034920Y-13596198D02*
X12044443Y-13586674D01*
X12044443Y-13586674D02*
X12063491Y-13577150D01*
X12063491Y-13577150D02*
X12092063Y-13577150D01*
X12092063Y-13577150D02*
X12111110Y-13586674D01*
X12111110Y-13586674D02*
X12120634Y-13605722D01*
X12120634Y-13605722D02*
X12120634Y-13710484D01*
X12120634Y-13605722D02*
X12130158Y-13586674D01*
X12130158Y-13586674D02*
X12149205Y-13577150D01*
X12149205Y-13577150D02*
X12177777Y-13577150D01*
X12177777Y-13577150D02*
X12196824Y-13586674D01*
X12196824Y-13586674D02*
X12206348Y-13605722D01*
X12206348Y-13605722D02*
X12206348Y-13710484D01*
X12301586Y-13710484D02*
X12301586Y-13577150D01*
X12301586Y-13596198D02*
X12311110Y-13586674D01*
X12311110Y-13586674D02*
X12330158Y-13577150D01*
X12330158Y-13577150D02*
X12358729Y-13577150D01*
X12358729Y-13577150D02*
X12377777Y-13586674D01*
X12377777Y-13586674D02*
X12387301Y-13605722D01*
X12387301Y-13605722D02*
X12387301Y-13710484D01*
X12387301Y-13605722D02*
X12396824Y-13586674D01*
X12396824Y-13586674D02*
X12415872Y-13577150D01*
X12415872Y-13577150D02*
X12444443Y-13577150D01*
X12444443Y-13577150D02*
X12463491Y-13586674D01*
X12463491Y-13586674D02*
X12473015Y-13605722D01*
X12473015Y-13605722D02*
X12473015Y-13710484D01*
X12863491Y-13500960D02*
X12692063Y-13758103D01*
X13120634Y-13510484D02*
X13139682Y-13510484D01*
X13139682Y-13510484D02*
X13158729Y-13520008D01*
X13158729Y-13520008D02*
X13168253Y-13529531D01*
X13168253Y-13529531D02*
X13177777Y-13548579D01*
X13177777Y-13548579D02*
X13187301Y-13586674D01*
X13187301Y-13586674D02*
X13187301Y-13634293D01*
X13187301Y-13634293D02*
X13177777Y-13672388D01*
X13177777Y-13672388D02*
X13168253Y-13691436D01*
X13168253Y-13691436D02*
X13158729Y-13700960D01*
X13158729Y-13700960D02*
X13139682Y-13710484D01*
X13139682Y-13710484D02*
X13120634Y-13710484D01*
X13120634Y-13710484D02*
X13101586Y-13700960D01*
X13101586Y-13700960D02*
X13092063Y-13691436D01*
X13092063Y-13691436D02*
X13082539Y-13672388D01*
X13082539Y-13672388D02*
X13073015Y-13634293D01*
X13073015Y-13634293D02*
X13073015Y-13586674D01*
X13073015Y-13586674D02*
X13082539Y-13548579D01*
X13082539Y-13548579D02*
X13092063Y-13529531D01*
X13092063Y-13529531D02*
X13101586Y-13520008D01*
X13101586Y-13520008D02*
X13120634Y-13510484D01*
X13273015Y-13691436D02*
X13282539Y-13700960D01*
X13282539Y-13700960D02*
X13273015Y-13710484D01*
X13273015Y-13710484D02*
X13263491Y-13700960D01*
X13263491Y-13700960D02*
X13273015Y-13691436D01*
X13273015Y-13691436D02*
X13273015Y-13710484D01*
X13406348Y-13510484D02*
X13425396Y-13510484D01*
X13425396Y-13510484D02*
X13444444Y-13520008D01*
X13444444Y-13520008D02*
X13453967Y-13529531D01*
X13453967Y-13529531D02*
X13463491Y-13548579D01*
X13463491Y-13548579D02*
X13473015Y-13586674D01*
X13473015Y-13586674D02*
X13473015Y-13634293D01*
X13473015Y-13634293D02*
X13463491Y-13672388D01*
X13463491Y-13672388D02*
X13453967Y-13691436D01*
X13453967Y-13691436D02*
X13444444Y-13700960D01*
X13444444Y-13700960D02*
X13425396Y-13710484D01*
X13425396Y-13710484D02*
X13406348Y-13710484D01*
X13406348Y-13710484D02*
X13387301Y-13700960D01*
X13387301Y-13700960D02*
X13377777Y-13691436D01*
X13377777Y-13691436D02*
X13368253Y-13672388D01*
X13368253Y-13672388D02*
X13358729Y-13634293D01*
X13358729Y-13634293D02*
X13358729Y-13586674D01*
X13358729Y-13586674D02*
X13368253Y-13548579D01*
X13368253Y-13548579D02*
X13377777Y-13529531D01*
X13377777Y-13529531D02*
X13387301Y-13520008D01*
X13387301Y-13520008D02*
X13406348Y-13510484D01*
X13644444Y-13577150D02*
X13644444Y-13710484D01*
X13596825Y-13500960D02*
X13549206Y-13643817D01*
X13549206Y-13643817D02*
X13673015Y-13643817D01*
X13730158Y-13510484D02*
X13853967Y-13510484D01*
X13853967Y-13510484D02*
X13787301Y-13586674D01*
X13787301Y-13586674D02*
X13815872Y-13586674D01*
X13815872Y-13586674D02*
X13834920Y-13596198D01*
X13834920Y-13596198D02*
X13844444Y-13605722D01*
X13844444Y-13605722D02*
X13853967Y-13624769D01*
X13853967Y-13624769D02*
X13853967Y-13672388D01*
X13853967Y-13672388D02*
X13844444Y-13691436D01*
X13844444Y-13691436D02*
X13834920Y-13700960D01*
X13834920Y-13700960D02*
X13815872Y-13710484D01*
X13815872Y-13710484D02*
X13758729Y-13710484D01*
X13758729Y-13710484D02*
X13739682Y-13700960D01*
X13739682Y-13700960D02*
X13730158Y-13691436D01*
X13920634Y-13510484D02*
X14044444Y-13510484D01*
X14044444Y-13510484D02*
X13977777Y-13586674D01*
X13977777Y-13586674D02*
X14006348Y-13586674D01*
X14006348Y-13586674D02*
X14025396Y-13596198D01*
X14025396Y-13596198D02*
X14034920Y-13605722D01*
X14034920Y-13605722D02*
X14044444Y-13624769D01*
X14044444Y-13624769D02*
X14044444Y-13672388D01*
X14044444Y-13672388D02*
X14034920Y-13691436D01*
X14034920Y-13691436D02*
X14025396Y-13700960D01*
X14025396Y-13700960D02*
X14006348Y-13710484D01*
X14006348Y-13710484D02*
X13949206Y-13710484D01*
X13949206Y-13710484D02*
X13930158Y-13700960D01*
X13930158Y-13700960D02*
X13920634Y-13691436D01*
X14120634Y-13510484D02*
X14120634Y-13548579D01*
X14196825Y-13510484D02*
X14196825Y-13548579D01*
X14492063Y-13786674D02*
X14482539Y-13777150D01*
X14482539Y-13777150D02*
X14463491Y-13748579D01*
X14463491Y-13748579D02*
X14453968Y-13729531D01*
X14453968Y-13729531D02*
X14444444Y-13700960D01*
X14444444Y-13700960D02*
X14434920Y-13653341D01*
X14434920Y-13653341D02*
X14434920Y-13615246D01*
X14434920Y-13615246D02*
X14444444Y-13567627D01*
X14444444Y-13567627D02*
X14453968Y-13539055D01*
X14453968Y-13539055D02*
X14463491Y-13520008D01*
X14463491Y-13520008D02*
X14482539Y-13491436D01*
X14482539Y-13491436D02*
X14492063Y-13481912D01*
X14653968Y-13577150D02*
X14653968Y-13710484D01*
X14606348Y-13500960D02*
X14558729Y-13643817D01*
X14558729Y-13643817D02*
X14682539Y-13643817D01*
X14911110Y-13710484D02*
X14911110Y-13510484D01*
X14996825Y-13710484D02*
X14996825Y-13605722D01*
X14996825Y-13605722D02*
X14987301Y-13586674D01*
X14987301Y-13586674D02*
X14968253Y-13577150D01*
X14968253Y-13577150D02*
X14939682Y-13577150D01*
X14939682Y-13577150D02*
X14920634Y-13586674D01*
X14920634Y-13586674D02*
X14911110Y-13596198D01*
X15120634Y-13710484D02*
X15101587Y-13700960D01*
X15101587Y-13700960D02*
X15092063Y-13691436D01*
X15092063Y-13691436D02*
X15082539Y-13672388D01*
X15082539Y-13672388D02*
X15082539Y-13615246D01*
X15082539Y-13615246D02*
X15092063Y-13596198D01*
X15092063Y-13596198D02*
X15101587Y-13586674D01*
X15101587Y-13586674D02*
X15120634Y-13577150D01*
X15120634Y-13577150D02*
X15149206Y-13577150D01*
X15149206Y-13577150D02*
X15168253Y-13586674D01*
X15168253Y-13586674D02*
X15177777Y-13596198D01*
X15177777Y-13596198D02*
X15187301Y-13615246D01*
X15187301Y-13615246D02*
X15187301Y-13672388D01*
X15187301Y-13672388D02*
X15177777Y-13691436D01*
X15177777Y-13691436D02*
X15168253Y-13700960D01*
X15168253Y-13700960D02*
X15149206Y-13710484D01*
X15149206Y-13710484D02*
X15120634Y-13710484D01*
X15301587Y-13710484D02*
X15282539Y-13700960D01*
X15282539Y-13700960D02*
X15273015Y-13681912D01*
X15273015Y-13681912D02*
X15273015Y-13510484D01*
X15453968Y-13700960D02*
X15434920Y-13710484D01*
X15434920Y-13710484D02*
X15396825Y-13710484D01*
X15396825Y-13710484D02*
X15377777Y-13700960D01*
X15377777Y-13700960D02*
X15368253Y-13681912D01*
X15368253Y-13681912D02*
X15368253Y-13605722D01*
X15368253Y-13605722D02*
X15377777Y-13586674D01*
X15377777Y-13586674D02*
X15396825Y-13577150D01*
X15396825Y-13577150D02*
X15434920Y-13577150D01*
X15434920Y-13577150D02*
X15453968Y-13586674D01*
X15453968Y-13586674D02*
X15463491Y-13605722D01*
X15463491Y-13605722D02*
X15463491Y-13624769D01*
X15463491Y-13624769D02*
X15368253Y-13643817D01*
X15539682Y-13700960D02*
X15558730Y-13710484D01*
X15558730Y-13710484D02*
X15596825Y-13710484D01*
X15596825Y-13710484D02*
X15615872Y-13700960D01*
X15615872Y-13700960D02*
X15625396Y-13681912D01*
X15625396Y-13681912D02*
X15625396Y-13672388D01*
X15625396Y-13672388D02*
X15615872Y-13653341D01*
X15615872Y-13653341D02*
X15596825Y-13643817D01*
X15596825Y-13643817D02*
X15568253Y-13643817D01*
X15568253Y-13643817D02*
X15549206Y-13634293D01*
X15549206Y-13634293D02*
X15539682Y-13615246D01*
X15539682Y-13615246D02*
X15539682Y-13605722D01*
X15539682Y-13605722D02*
X15549206Y-13586674D01*
X15549206Y-13586674D02*
X15568253Y-13577150D01*
X15568253Y-13577150D02*
X15596825Y-13577150D01*
X15596825Y-13577150D02*
X15615872Y-13586674D01*
X15692063Y-13786674D02*
X15701587Y-13777150D01*
X15701587Y-13777150D02*
X15720634Y-13748579D01*
X15720634Y-13748579D02*
X15730158Y-13729531D01*
X15730158Y-13729531D02*
X15739682Y-13700960D01*
X15739682Y-13700960D02*
X15749206Y-13653341D01*
X15749206Y-13653341D02*
X15749206Y-13615246D01*
X15749206Y-13615246D02*
X15739682Y-13567627D01*
X15739682Y-13567627D02*
X15730158Y-13539055D01*
X15730158Y-13539055D02*
X15720634Y-13520008D01*
X15720634Y-13520008D02*
X15701587Y-13491436D01*
X15701587Y-13491436D02*
X15692063Y-13481912D01*
M02*
