%TF.GenerationSoftware,KiCad,Pcbnew,7.0.9*%
%TF.CreationDate,2023-11-18T21:52:10-06:00*%
%TF.ProjectId,batttlebot_pcb,62617474-746c-4656-926f-745f7063622e,rev?*%
%TF.SameCoordinates,Original*%
%TF.FileFunction,Drillmap*%
%TF.FilePolarity,Positive*%
%FSLAX45Y45*%
G04 Gerber Fmt 4.5, Leading zero omitted, Abs format (unit mm)*
G04 Created by KiCad (PCBNEW 7.0.9) date 2023-11-18 21:52:10*
%MOMM*%
%LPD*%
G01*
G04 APERTURE LIST*
%ADD10C,0.100000*%
%ADD11C,0.200000*%
G04 APERTURE END LIST*
D10*
X10922000Y-6858000D02*
X16002000Y-6858000D01*
X16002000Y-12446000D01*
X10922000Y-12446000D01*
X10922000Y-6858000D01*
D11*
X11177777Y-12762484D02*
X11177777Y-12562484D01*
X11177777Y-12562484D02*
X11225396Y-12562484D01*
X11225396Y-12562484D02*
X11253967Y-12572008D01*
X11253967Y-12572008D02*
X11273015Y-12591055D01*
X11273015Y-12591055D02*
X11282539Y-12610103D01*
X11282539Y-12610103D02*
X11292062Y-12648198D01*
X11292062Y-12648198D02*
X11292062Y-12676769D01*
X11292062Y-12676769D02*
X11282539Y-12714865D01*
X11282539Y-12714865D02*
X11273015Y-12733912D01*
X11273015Y-12733912D02*
X11253967Y-12752960D01*
X11253967Y-12752960D02*
X11225396Y-12762484D01*
X11225396Y-12762484D02*
X11177777Y-12762484D01*
X11377777Y-12762484D02*
X11377777Y-12629150D01*
X11377777Y-12667246D02*
X11387301Y-12648198D01*
X11387301Y-12648198D02*
X11396824Y-12638674D01*
X11396824Y-12638674D02*
X11415872Y-12629150D01*
X11415872Y-12629150D02*
X11434920Y-12629150D01*
X11501586Y-12762484D02*
X11501586Y-12629150D01*
X11501586Y-12562484D02*
X11492062Y-12572008D01*
X11492062Y-12572008D02*
X11501586Y-12581531D01*
X11501586Y-12581531D02*
X11511110Y-12572008D01*
X11511110Y-12572008D02*
X11501586Y-12562484D01*
X11501586Y-12562484D02*
X11501586Y-12581531D01*
X11625396Y-12762484D02*
X11606348Y-12752960D01*
X11606348Y-12752960D02*
X11596824Y-12733912D01*
X11596824Y-12733912D02*
X11596824Y-12562484D01*
X11730158Y-12762484D02*
X11711110Y-12752960D01*
X11711110Y-12752960D02*
X11701586Y-12733912D01*
X11701586Y-12733912D02*
X11701586Y-12562484D01*
X11958729Y-12762484D02*
X11958729Y-12562484D01*
X11958729Y-12562484D02*
X12025396Y-12705341D01*
X12025396Y-12705341D02*
X12092062Y-12562484D01*
X12092062Y-12562484D02*
X12092062Y-12762484D01*
X12273015Y-12762484D02*
X12273015Y-12657722D01*
X12273015Y-12657722D02*
X12263491Y-12638674D01*
X12263491Y-12638674D02*
X12244443Y-12629150D01*
X12244443Y-12629150D02*
X12206348Y-12629150D01*
X12206348Y-12629150D02*
X12187301Y-12638674D01*
X12273015Y-12752960D02*
X12253967Y-12762484D01*
X12253967Y-12762484D02*
X12206348Y-12762484D01*
X12206348Y-12762484D02*
X12187301Y-12752960D01*
X12187301Y-12752960D02*
X12177777Y-12733912D01*
X12177777Y-12733912D02*
X12177777Y-12714865D01*
X12177777Y-12714865D02*
X12187301Y-12695817D01*
X12187301Y-12695817D02*
X12206348Y-12686293D01*
X12206348Y-12686293D02*
X12253967Y-12686293D01*
X12253967Y-12686293D02*
X12273015Y-12676769D01*
X12368253Y-12629150D02*
X12368253Y-12829150D01*
X12368253Y-12638674D02*
X12387301Y-12629150D01*
X12387301Y-12629150D02*
X12425396Y-12629150D01*
X12425396Y-12629150D02*
X12444443Y-12638674D01*
X12444443Y-12638674D02*
X12453967Y-12648198D01*
X12453967Y-12648198D02*
X12463491Y-12667246D01*
X12463491Y-12667246D02*
X12463491Y-12724388D01*
X12463491Y-12724388D02*
X12453967Y-12743436D01*
X12453967Y-12743436D02*
X12444443Y-12752960D01*
X12444443Y-12752960D02*
X12425396Y-12762484D01*
X12425396Y-12762484D02*
X12387301Y-12762484D01*
X12387301Y-12762484D02*
X12368253Y-12752960D01*
X12549205Y-12743436D02*
X12558729Y-12752960D01*
X12558729Y-12752960D02*
X12549205Y-12762484D01*
X12549205Y-12762484D02*
X12539682Y-12752960D01*
X12539682Y-12752960D02*
X12549205Y-12743436D01*
X12549205Y-12743436D02*
X12549205Y-12762484D01*
X12549205Y-12638674D02*
X12558729Y-12648198D01*
X12558729Y-12648198D02*
X12549205Y-12657722D01*
X12549205Y-12657722D02*
X12539682Y-12648198D01*
X12539682Y-12648198D02*
X12549205Y-12638674D01*
X12549205Y-12638674D02*
X12549205Y-12657722D01*
M02*
