%TF.GenerationSoftware,KiCad,Pcbnew,7.0.9*%
%TF.CreationDate,2023-11-18T21:52:13-06:00*%
%TF.ProjectId,batttlebot_pcb,62617474-746c-4656-926f-745f7063622e,rev?*%
%TF.SameCoordinates,Original*%
%TF.FileFunction,Copper,L1,Top*%
%TF.FilePolarity,Positive*%
%FSLAX46Y46*%
G04 Gerber Fmt 4.6, Leading zero omitted, Abs format (unit mm)*
G04 Created by KiCad (PCBNEW 7.0.9) date 2023-11-18 21:52:13*
%MOMM*%
%LPD*%
G01*
G04 APERTURE LIST*
G04 Aperture macros list*
%AMRoundRect*
0 Rectangle with rounded corners*
0 $1 Rounding radius*
0 $2 $3 $4 $5 $6 $7 $8 $9 X,Y pos of 4 corners*
0 Add a 4 corners polygon primitive as box body*
4,1,4,$2,$3,$4,$5,$6,$7,$8,$9,$2,$3,0*
0 Add four circle primitives for the rounded corners*
1,1,$1+$1,$2,$3*
1,1,$1+$1,$4,$5*
1,1,$1+$1,$6,$7*
1,1,$1+$1,$8,$9*
0 Add four rect primitives between the rounded corners*
20,1,$1+$1,$2,$3,$4,$5,0*
20,1,$1+$1,$4,$5,$6,$7,0*
20,1,$1+$1,$6,$7,$8,$9,0*
20,1,$1+$1,$8,$9,$2,$3,0*%
G04 Aperture macros list end*
%TA.AperFunction,ComponentPad*%
%ADD10C,1.850000*%
%TD*%
%TA.AperFunction,ComponentPad*%
%ADD11RoundRect,0.250000X0.675000X-0.675000X0.675000X0.675000X-0.675000X0.675000X-0.675000X-0.675000X0*%
%TD*%
%TA.AperFunction,ComponentPad*%
%ADD12R,2.100000X2.100000*%
%TD*%
%TA.AperFunction,ComponentPad*%
%ADD13C,2.100000*%
%TD*%
%TA.AperFunction,ComponentPad*%
%ADD14R,1.700000X1.700000*%
%TD*%
%TA.AperFunction,ComponentPad*%
%ADD15O,1.700000X1.700000*%
%TD*%
%TA.AperFunction,ComponentPad*%
%ADD16R,1.600000X1.600000*%
%TD*%
%TA.AperFunction,ComponentPad*%
%ADD17O,1.600000X1.600000*%
%TD*%
%TA.AperFunction,Conductor*%
%ADD18C,0.250000*%
%TD*%
G04 APERTURE END LIST*
D10*
%TO.P,J6,3,Pin_3*%
%TO.N,/5V*%
X154940000Y-102740000D03*
%TO.P,J6,2,Pin_2*%
%TO.N,GND*%
X154940000Y-106940000D03*
D11*
%TO.P,J6,1,Pin_1*%
%TO.N,/BATT+*%
X154940000Y-111140000D03*
%TD*%
D12*
%TO.P,J5,1,Pin_1*%
%TO.N,/BATT+*%
X154940000Y-88900000D03*
D13*
%TO.P,J5,2,Pin_2*%
%TO.N,GND*%
X154940000Y-86360000D03*
%TD*%
D14*
%TO.P,J2,1,Pin_1*%
%TO.N,Net-(A1-A7)*%
X114300000Y-88900000D03*
D15*
%TO.P,J2,2,Pin_2*%
%TO.N,Net-(A1-D2)*%
X114300000Y-91440000D03*
%TO.P,J2,3,Pin_3*%
%TO.N,Net-(A1-D3)*%
X114300000Y-93980000D03*
%TO.P,J2,4,Pin_4*%
%TO.N,Net-(A1-MISO)*%
X114300000Y-96520000D03*
%TD*%
D14*
%TO.P,J4,1,Pin_1*%
%TO.N,Net-(A1-D10)*%
X114300000Y-116840000D03*
D15*
%TO.P,J4,2,Pin_2*%
%TO.N,Net-(A1-D9)*%
X114300000Y-114300000D03*
%TO.P,J4,3,Pin_3*%
%TO.N,Net-(A1-D8)*%
X114300000Y-111760000D03*
%TO.P,J4,4,Pin_4*%
%TO.N,Net-(A1-D7)*%
X114300000Y-109220000D03*
%TO.P,J4,5,Pin_5*%
%TO.N,Net-(A1-D4)*%
X114300000Y-106680000D03*
%TO.P,J4,6,Pin_6*%
%TO.N,Net-(A1-D5)*%
X114300000Y-104140000D03*
%TD*%
D13*
%TO.P,J3,2,Pin_2*%
%TO.N,/BATT+*%
X154940000Y-73660000D03*
D12*
%TO.P,J3,1,Pin_1*%
%TO.N,GND*%
X154940000Y-76200000D03*
%TD*%
D14*
%TO.P,J1,1,Pin_1*%
%TO.N,/D6*%
X114300000Y-76200000D03*
D15*
%TO.P,J1,2,Pin_2*%
%TO.N,/5V*%
X114300000Y-78740000D03*
%TO.P,J1,3,Pin_3*%
%TO.N,GND*%
X114300000Y-81280000D03*
%TD*%
D16*
%TO.P,A1,1,TX1*%
%TO.N,unconnected-(A1-TX1-Pad1)*%
X126520000Y-78700000D03*
D17*
%TO.P,A1,2,RX1*%
%TO.N,unconnected-(A1-RX1-Pad2)*%
X126520000Y-81240000D03*
%TO.P,A1,3,~{RESET}*%
%TO.N,unconnected-(A1-~{RESET}-Pad3)*%
X126520000Y-83780000D03*
%TO.P,A1,4,GND*%
%TO.N,GND*%
X126520000Y-86320000D03*
%TO.P,A1,5,D2*%
%TO.N,Net-(A1-D2)*%
X126520000Y-88860000D03*
%TO.P,A1,6,D3*%
%TO.N,Net-(A1-D3)*%
X126520000Y-91400000D03*
%TO.P,A1,7,D4*%
%TO.N,Net-(A1-D4)*%
X126520000Y-93940000D03*
%TO.P,A1,8,D5*%
%TO.N,Net-(A1-D5)*%
X126520000Y-96480000D03*
%TO.P,A1,9,D6*%
%TO.N,/D6*%
X126520000Y-99020000D03*
%TO.P,A1,10,D7*%
%TO.N,Net-(A1-D7)*%
X126520000Y-101560000D03*
%TO.P,A1,11,D8*%
%TO.N,Net-(A1-D8)*%
X126520000Y-104100000D03*
%TO.P,A1,12,D9*%
%TO.N,Net-(A1-D9)*%
X126520000Y-106640000D03*
%TO.P,A1,13,D10*%
%TO.N,Net-(A1-D10)*%
X126520000Y-109180000D03*
%TO.P,A1,14,MOSI*%
%TO.N,unconnected-(A1-MOSI-Pad14)*%
X126520000Y-111720000D03*
%TO.P,A1,15,MISO*%
%TO.N,Net-(A1-MISO)*%
X126520000Y-114260000D03*
%TO.P,A1,16,SCK*%
%TO.N,unconnected-(A1-SCK-Pad16)*%
X141760000Y-114260000D03*
%TO.P,A1,17,3V3*%
%TO.N,unconnected-(A1-3V3-Pad17)*%
X141760000Y-111720000D03*
%TO.P,A1,18,AREF*%
%TO.N,unconnected-(A1-AREF-Pad18)*%
X141760000Y-109180000D03*
%TO.P,A1,19,A0*%
%TO.N,unconnected-(A1-A0-Pad19)*%
X141760000Y-106640000D03*
%TO.P,A1,20,A1*%
%TO.N,unconnected-(A1-A1-Pad20)*%
X141760000Y-104100000D03*
%TO.P,A1,21,A2*%
%TO.N,unconnected-(A1-A2-Pad21)*%
X141760000Y-101560000D03*
%TO.P,A1,22,A3*%
%TO.N,unconnected-(A1-A3-Pad22)*%
X141760000Y-99020000D03*
%TO.P,A1,23,SDA/A4*%
%TO.N,unconnected-(A1-SDA{slash}A4-Pad23)*%
X141760000Y-96480000D03*
%TO.P,A1,24,SCL/A5*%
%TO.N,unconnected-(A1-SCL{slash}A5-Pad24)*%
X141760000Y-93940000D03*
%TO.P,A1,25,A6*%
%TO.N,unconnected-(A1-A6-Pad25)*%
X141760000Y-91400000D03*
%TO.P,A1,26,A7*%
%TO.N,Net-(A1-A7)*%
X141760000Y-88860000D03*
%TO.P,A1,27,+5V*%
%TO.N,/5V*%
X141760000Y-86320000D03*
%TO.P,A1,28,~{RESET}*%
%TO.N,unconnected-(A1-~{RESET}-Pad28)*%
X141760000Y-83780000D03*
%TO.P,A1,29,GND*%
%TO.N,GND*%
X141760000Y-81240000D03*
%TO.P,A1,30,VIN*%
%TO.N,unconnected-(A1-VIN-Pad30)*%
X141760000Y-78700000D03*
%TD*%
D18*
%TO.N,GND*%
X146800000Y-76200000D02*
X141760000Y-81240000D01*
X154940000Y-76200000D02*
X146800000Y-76200000D01*
X154940000Y-106940000D02*
X153565000Y-105565000D01*
X154940000Y-86360000D02*
X154940000Y-76200000D01*
X153565000Y-87525000D02*
X154730000Y-86360000D01*
X154730000Y-86360000D02*
X154940000Y-86360000D01*
X153565000Y-105565000D02*
X153565000Y-87525000D01*
%TO.N,/BATT+*%
X154940000Y-88900000D02*
X156190000Y-90150000D01*
X156190000Y-90150000D02*
X156190000Y-109890000D01*
X156190000Y-109890000D02*
X154940000Y-111140000D01*
%TO.N,Net-(A1-MISO)*%
X111760000Y-99060000D02*
X111760000Y-119380000D01*
X114300000Y-96520000D02*
X111760000Y-99060000D01*
X111760000Y-119380000D02*
X121400000Y-119380000D01*
X121400000Y-119380000D02*
X126520000Y-114260000D01*
%TO.N,/BATT+*%
X154940000Y-88900000D02*
X156315000Y-87525000D01*
X156315000Y-87525000D02*
X156315000Y-74825000D01*
X156315000Y-74825000D02*
X155150000Y-73660000D01*
X155150000Y-73660000D02*
X154940000Y-73660000D01*
%TO.N,Net-(A1-D5)*%
X114300000Y-104140000D02*
X118110000Y-104140000D01*
X118110000Y-104140000D02*
X125770000Y-96480000D01*
X125770000Y-96480000D02*
X126520000Y-96480000D01*
%TO.N,GND*%
X114300000Y-81280000D02*
X121480000Y-81280000D01*
X121480000Y-81280000D02*
X126520000Y-86320000D01*
%TO.N,Net-(A1-D2)*%
X114300000Y-91440000D02*
X123940000Y-91440000D01*
X123940000Y-91440000D02*
X126520000Y-88860000D01*
%TO.N,Net-(A1-D3)*%
X114300000Y-93980000D02*
X123940000Y-93980000D01*
X123940000Y-93980000D02*
X126520000Y-91400000D01*
%TO.N,Net-(A1-D4)*%
X114300000Y-106680000D02*
X113125000Y-105505000D01*
X113125000Y-105505000D02*
X113125000Y-102775000D01*
X113125000Y-102775000D02*
X114300000Y-101600000D01*
X114300000Y-101600000D02*
X118860000Y-101600000D01*
X118860000Y-101600000D02*
X126520000Y-93940000D01*
%TO.N,Net-(A1-D7)*%
X114300000Y-109220000D02*
X118860000Y-109220000D01*
X118860000Y-109220000D02*
X126520000Y-101560000D01*
%TO.N,Net-(A1-D8)*%
X114300000Y-111760000D02*
X118860000Y-111760000D01*
X118860000Y-111760000D02*
X126520000Y-104100000D01*
%TO.N,Net-(A1-D9)*%
X114300000Y-114300000D02*
X118860000Y-114300000D01*
X118860000Y-114300000D02*
X126520000Y-106640000D01*
%TO.N,Net-(A1-D10)*%
X114300000Y-116840000D02*
X118860000Y-116840000D01*
X118860000Y-116840000D02*
X126520000Y-109180000D01*
%TD*%
M02*
